<svg width="70" height="70" viewBox="0 0 70 70" fill="none" xmlns="http://www.w3.org/2000/svg">
<circle cx="35" cy="35" r="35" fill="#92A3FE"/>
<g clip-path="url(#clip0_101_11137)">
<path d="M22.1524 12.0809C21.4606 12.2965 20.9665 12.7277 20.661 13.3926C20.2567 14.2371 20.4454 15.2164 21.1282 15.8992C21.5954 16.3754 22.1524 16.582 22.9161 16.582H23.4731L23.527 18.1273C23.6438 21.3527 24.2727 23.9313 25.6204 26.6445C26.6985 28.8098 27.6419 30.1395 29.5825 32.1969C30.8852 33.5805 31.1368 34.0207 31.1368 35C31.1368 35.9703 30.8852 36.4195 29.6274 37.7582C27.6239 39.8785 26.6985 41.1812 25.6204 43.3555C24.2727 46.0688 23.6438 48.6473 23.527 51.8727L23.4731 53.418H22.9161C22.1524 53.418 21.5954 53.6246 21.1282 54.1008C20.0142 55.2059 20.3196 56.9938 21.7481 57.7664L22.1075 57.9551H35.0001H47.8927L48.252 57.7664C49.6806 56.9938 49.986 55.2059 48.872 54.1008C48.4048 53.6246 47.8477 53.418 47.0841 53.418H46.527L46.4731 51.8727C46.3563 48.6473 45.7274 46.0688 44.3798 43.3555C43.3017 41.1812 42.3763 39.8785 40.3727 37.7582C39.1149 36.4195 38.8634 35.9703 38.8634 35C38.8634 34.0297 39.1149 33.5805 40.3727 32.2418C42.3763 30.1215 43.3017 28.8188 44.3798 26.6445C45.7274 23.9313 46.3563 21.3527 46.4731 18.1273L46.527 16.582H47.0841C47.8477 16.582 48.4048 16.3754 48.872 15.8992C49.986 14.7941 49.6806 13.0063 48.252 12.2336L47.8927 12.0449L35.1349 12.027C28.1181 12.018 22.2782 12.0449 22.1524 12.0809ZM47.7669 13.7879C48.1263 14.1473 48.0903 14.6234 47.677 14.9379C47.4704 15.0996 22.5298 15.0996 22.3231 14.9379C21.9099 14.6234 21.8739 14.1473 22.2333 13.7879L22.4938 13.5273H35.0001H47.5063L47.7669 13.7879ZM44.9727 17.4535C44.9727 20.3195 44.2989 23.2934 43.095 25.791C42.1157 27.8215 41.1903 29.1332 39.4384 30.966C37.6595 32.8438 37.3899 33.3738 37.3899 35C37.3899 36.6262 37.6595 37.1562 39.4384 39.034C41.1903 40.8668 42.1157 42.1785 43.095 44.209C44.2989 46.7066 44.9727 49.6805 44.9727 52.5375V53.418H35.0001H25.0274V52.5375C25.0274 49.6805 25.7013 46.7066 26.9052 44.209C27.8845 42.1695 28.72 40.9926 30.6876 38.8633C31.9813 37.4617 32.2688 37.0484 32.5294 36.132C32.736 35.4223 32.6821 34.1645 32.4036 33.4637C32.1161 32.709 31.7657 32.2328 30.5618 30.966C28.8099 29.1332 27.8845 27.8215 26.9052 25.791C25.7013 23.3113 25.0274 20.3016 25.0274 17.4625V16.582H35.0001H44.9727V17.4535ZM47.677 55.0621C48.0903 55.3766 48.1263 55.8527 47.7669 56.2121L47.5063 56.4727H35.0001H22.4938L22.2333 56.2121C21.8739 55.8527 21.9099 55.3766 22.3231 55.0621C22.5298 54.9004 47.4704 54.9004 47.677 55.0621Z" fill="white"/>
<path d="M31.3166 22.368C30.2385 22.6105 29.4299 23.2934 29.0435 24.2906C28.801 24.9016 28.8459 25.1801 29.3221 25.9977C30.0318 27.2375 30.8045 28.2527 32.0174 29.5375C33.2842 30.8852 33.6885 31.5141 34.0029 32.6641C34.1107 33.0324 34.1916 33.5355 34.1916 33.7871C34.1916 34.6316 34.6588 35.1527 35.2517 34.9461C35.5752 34.8383 35.8088 34.3531 35.8088 33.7871C35.8088 33.1762 36.1142 32.134 36.5096 31.3613C36.7791 30.8313 37.1385 30.427 38.8455 28.7109C41.442 26.1145 41.8014 25.5754 41.433 24.8656C41.1904 24.3895 40.885 24.2996 39.2318 24.2098C36.7701 24.084 35.3506 23.7516 34.0748 23.0059C32.9248 22.323 32.206 22.1613 31.3166 22.368ZM32.8529 24.084C34.8025 25.1711 36.24 25.5844 38.576 25.7191L39.5912 25.773L37.6326 27.7586C36.2131 29.1871 35.5842 29.8969 35.3596 30.3012C35.1889 30.6066 35.0271 30.8582 35.0002 30.8582C34.9732 30.8582 34.8115 30.6156 34.6408 30.3102C34.4701 30.0047 33.8502 29.25 33.2572 28.6301C32.0174 27.3184 31.5771 26.7613 30.9123 25.6832C30.4631 24.9555 30.4361 24.8836 30.5529 24.677C30.6787 24.4254 30.9842 24.1199 31.2717 23.9672C31.6041 23.7785 32.4217 23.8414 32.8529 24.084Z" fill="white"/>
<path d="M34.6406 36.6441C34.3352 36.7969 34.1914 37.1203 34.1914 37.6773C34.1914 38.2703 34.3711 38.6387 34.7305 38.7555C35.0449 38.8723 35.2336 38.8273 35.5211 38.5668C35.6918 38.4051 35.7188 38.2973 35.7188 37.7043C35.7098 36.9945 35.6379 36.8148 35.2965 36.6352C35.0539 36.5004 34.9191 36.5004 34.6406 36.6441Z" fill="white"/>
<path d="M34.47 40.6062C34.0926 41.0015 34.1016 42.1066 34.4789 42.457C34.7575 42.7086 35.2246 42.6906 35.4942 42.4121C35.6918 42.2234 35.7188 42.1156 35.7188 41.5137C35.7188 40.9117 35.6918 40.8039 35.4942 40.6152C35.1977 40.3097 34.7485 40.3097 34.47 40.6062Z" fill="white"/>
<path d="M32.5295 44.2539C31.8377 44.3527 31.2178 44.5594 30.5979 44.9098C29.969 45.2512 28.217 47.0301 27.6241 47.9195C27.103 48.6922 26.7436 49.7523 26.6717 50.7137C26.6268 51.3695 26.6358 51.4055 26.8694 51.6211L27.1119 51.8457H35.0002H42.8885L43.1311 51.6211C43.3647 51.4055 43.3737 51.3695 43.3287 50.7137C43.2479 49.7434 42.8975 48.6922 42.3674 47.9105C42.1248 47.5422 41.442 46.7605 40.867 46.1766C39.744 45.0445 39.1959 44.6762 38.1448 44.3797C37.5698 44.209 33.4549 44.1191 32.5295 44.2539ZM37.2284 45.7812C38.4143 45.952 39.2498 46.5449 40.6784 48.216C41.0916 48.6922 41.5768 49.5996 41.7026 50.1117L41.7565 50.3633H35.0002H28.244L28.2979 50.1117C28.5135 49.2223 29.0975 48.3688 30.3912 47.057C31.119 46.3293 31.8826 45.898 32.6912 45.7812C33.3651 45.6824 36.5635 45.6824 37.2284 45.7812Z" fill="white"/>
</g>
<defs>
<clipPath id="clip0_101_11137">
<rect width="46" height="46" fill="white" transform="translate(12 12)"/>
</clipPath>
</defs>
</svg>
