<svg width="70" height="70" viewBox="0 0 70 70" fill="none" xmlns="http://www.w3.org/2000/svg">
<circle cx="35" cy="35" r="35" fill="#92A3FE"/>
<g clip-path="url(#clip0_101_52760)">
<path d="M38.369 15.468C36.3116 15.6926 34.2093 16.5012 32.6639 17.6691C32.0171 18.1633 30.9389 19.2234 30.3729 19.9242C30.1034 20.2477 30.1034 20.2477 29.6542 20.1758C28.9534 20.05 27.5518 20.077 26.7253 20.2207C23.1585 20.8406 20.3374 23.3832 19.3221 26.8691C19.1964 27.3094 19.0886 27.6777 19.0706 27.6867C19.0616 27.6957 18.7921 27.7945 18.4686 27.9023C15.4499 28.9086 13.1229 31.4063 12.2964 34.5328C12.0897 35.2965 12.0628 35.584 12.0628 36.8418C12.0538 38.1086 12.0897 38.3781 12.2874 39.1418C13.0241 41.8641 14.8569 44.1012 17.3456 45.2961C18.8909 46.0418 20.8764 46.4371 21.3886 46.1047C21.5593 45.9879 21.6132 45.8801 21.6132 45.6106C21.6132 45.1344 21.3975 44.9727 20.6339 44.8738C16.6089 44.3707 13.5991 41.2262 13.3745 37.291C13.2487 35.009 14.0663 32.8527 15.6835 31.2266C16.8155 30.0766 18.0014 29.3848 19.4569 29.0164C19.7804 28.9445 20.0948 28.8277 20.1577 28.7649C20.2206 28.702 20.3823 28.1898 20.5261 27.6238C21.3077 24.4524 23.6346 22.2063 26.8241 21.5594C27.6596 21.3977 29.4296 21.4246 30.0944 21.6133C30.5706 21.757 30.8401 21.6223 31.2264 21.0563C31.6846 20.3734 32.6729 19.3582 33.4007 18.8012C34.5956 17.8938 35.8983 17.3008 37.4257 16.9774C38.3511 16.7797 40.2108 16.7617 41.1991 16.9324C43.3464 17.3098 45.278 18.307 46.7784 19.8074C48.2878 21.3168 49.2042 23.1047 49.5905 25.3328C49.7522 26.2852 49.9409 26.6805 50.3452 26.9859C51.9354 28.1898 52.5733 29.3488 52.6632 31.1996C52.7261 32.5383 52.8429 32.7719 53.7503 33.4008C55.3315 34.4879 56.2839 35.9523 56.5624 37.7223C57.0745 40.8758 54.9452 43.9934 51.7737 44.7481C51.4682 44.8199 50.6507 44.9098 49.9679 44.9457C48.9257 44.9906 48.6921 45.0266 48.5483 45.1703C48.3417 45.377 48.3417 45.7992 48.5573 46.0598C48.728 46.2664 48.764 46.2754 50.0218 46.2574C51.4143 46.2484 52.1331 46.1227 53.1393 45.7184C56.185 44.5055 58.1347 41.5227 57.9729 38.3242C57.8472 35.9883 56.778 33.9848 54.8913 32.5652C54.4241 32.2148 54.0468 31.8824 54.0468 31.8285C53.9749 30.0227 53.8581 29.4746 53.31 28.3516C53.0225 27.7496 52.78 27.4352 52.2139 26.8602C51.8097 26.4648 51.3964 26.0785 51.2796 26.0066C51.0999 25.8988 51.037 25.7012 50.8573 24.7938C50.3632 22.332 49.4378 20.5891 47.7218 18.8641C45.5565 16.7078 42.8882 15.5578 39.7616 15.468C39.1956 15.45 38.5667 15.45 38.369 15.468Z" fill="white"/>
<path d="M30.5887 25.6922C30.3641 25.7461 30.0047 25.9078 29.7801 26.0336C29.5645 26.1684 28.1809 27.4801 26.7164 28.9535C23.9043 31.7746 23.7156 32.0082 23.509 33.0055C23.3742 33.6344 23.3652 51.2078 23.5 51.8996C23.7067 52.9688 24.4793 53.9391 25.4496 54.3344L25.9707 54.541H34.9551C41.936 54.541 44.0203 54.5141 44.3168 54.4242C45.1883 54.1637 46.0688 53.2922 46.3832 52.3848C46.536 51.9625 46.5449 51.1449 46.5449 40.0312V28.127L46.3383 27.6238C46.1047 27.0488 45.5567 26.375 45.0625 26.0605C44.2719 25.5664 44.3078 25.5664 37.3899 25.5754C32.6281 25.5754 30.8942 25.6023 30.5887 25.6922ZM44.1281 27.0848C44.6223 27.3094 45.0356 27.8305 45.1524 28.3875C45.2242 28.7109 45.2422 32.3137 45.2242 40.3547L45.1973 51.8637L44.9277 52.3039C44.7481 52.5824 44.5055 52.825 44.2539 52.9688L43.8496 53.1934H35H26.1504L25.7281 52.9418C25.4496 52.7801 25.216 52.5465 25.0543 52.268L24.8027 51.8457L24.7758 42.7715C24.7578 37.7762 24.7758 33.5625 24.8027 33.4008L24.8567 33.1133H27.3004C29.6633 33.1133 29.7531 33.1043 30.1035 32.9066C30.2922 32.7988 30.5797 32.5293 30.7324 32.3227L31.002 31.9273L31.0289 29.4207L31.0559 26.9141H37.4078C43.3914 26.9141 43.7777 26.932 44.1281 27.0848ZM29.6094 31.5859C29.5195 31.7566 29.4117 31.7656 27.6508 31.7656H25.791L27.7227 29.834L29.6543 27.9023L29.6813 29.6543C29.6902 30.7684 29.6723 31.4781 29.6094 31.5859Z" fill="white"/>
<path d="M27.7501 35.4223C27.3278 35.5031 27.1391 36.1141 27.4177 36.5094L27.5524 36.707H35.0005H42.4485L42.5833 36.5094C42.772 36.2398 42.763 35.8715 42.5563 35.6199L42.3856 35.4043L35.1622 35.3953C31.2001 35.3863 27.8579 35.3953 27.7501 35.4223Z" fill="white"/>
<path d="M27.7231 39.1957C27.2559 39.3664 27.1122 39.9594 27.4536 40.3008C27.6332 40.4805 27.75 40.4805 35.0004 40.4805C42.2508 40.4805 42.3676 40.4805 42.5473 40.3008C42.7899 40.0582 42.7809 39.573 42.5383 39.3484C42.3586 39.1867 42.0891 39.1777 35.0993 39.1598C31.1192 39.1508 27.795 39.1688 27.7231 39.1957Z" fill="white"/>
<path d="M27.5069 43.0949C27.2104 43.3285 27.1835 43.8047 27.453 44.0742C27.6327 44.2539 27.7495 44.2539 34.9999 44.2539C42.2503 44.2539 42.367 44.2539 42.5467 44.0742C42.8163 43.8047 42.7893 43.3285 42.4928 43.0949C42.2503 42.9062 42.2053 42.9062 34.9999 42.9062C27.7944 42.9062 27.7495 42.9062 27.5069 43.0949Z" fill="white"/>
<path d="M27.5071 46.8684C27.2016 47.1109 27.1837 47.5602 27.4801 47.8297C27.6868 48.0273 27.7407 48.0273 30.2923 48.0273H32.9067L33.0954 47.8207C33.3739 47.5242 33.3559 47.102 33.0594 46.8684C32.8259 46.6887 32.7091 46.6797 30.2833 46.6797C27.8575 46.6797 27.7407 46.6887 27.5071 46.8684Z" fill="white"/>
</g>
<defs>
<clipPath id="clip0_101_52760">
<rect width="46" height="46" fill="white" transform="translate(12 12)"/>
</clipPath>
</defs>
</svg>
