<svg width="70" height="70" viewBox="0 0 70 70" fill="none" xmlns="http://www.w3.org/2000/svg">
<circle cx="35" cy="35" r="35" fill="#92A3FE"/>
<g clip-path="url(#clip0_101_15304)">
<path d="M14.8748 13.5543C14.4346 13.698 13.6799 14.4707 13.5451 14.9289C13.3834 15.4679 13.3834 54.532 13.5451 55.0711C13.6889 55.5652 14.4346 56.3109 14.9287 56.4547C15.4678 56.6074 43.0318 56.6074 43.5709 56.4547C44.065 56.3109 44.8107 55.5652 44.9545 55.0711C45.0264 54.8195 45.0623 53.957 45.0623 52.4836V50.2644L44.8377 50.0488C44.5502 49.7523 44.1369 49.7523 43.8494 50.0488L43.6248 50.2644V52.4746V54.6847L43.4002 54.9004L43.1846 55.125H29.2498H15.315L15.0994 54.9004L14.8748 54.6847V35V15.3152L15.0994 15.0996L15.315 14.875H26.5994H37.8748V16.8156C37.8748 18.0375 37.9107 18.891 37.9826 19.1066C38.1264 19.6008 38.6385 20.1668 39.1686 20.4094C39.6088 20.616 39.7166 20.625 41.6303 20.625H43.6248V28.073C43.6248 35.2426 43.6338 35.5301 43.7955 35.7277C44.0381 36.0242 44.649 36.0242 44.8916 35.7277C45.0533 35.5301 45.0623 35.2336 45.0623 27.5609V19.5918L41.9807 16.5191L38.908 13.4375L27.0486 13.4465C18.6752 13.4554 15.0994 13.4824 14.8748 13.5543ZM40.9744 17.5703L42.5916 19.1875H41.1721C39.7885 19.1875 39.7525 19.1785 39.5369 18.9629C39.3213 18.7472 39.3123 18.7113 39.3123 17.3457C39.3123 16.582 39.3213 15.9531 39.3393 15.9531C39.3482 15.9531 40.085 16.6808 40.9744 17.5703Z" fill="white"/>
<path d="M22.2871 19.4121C22.1434 19.5469 22.0625 19.7355 22.0625 19.9062C22.0625 20.077 22.1434 20.2656 22.2871 20.4004L22.5027 20.625H28.5313H34.5598L34.7754 20.4004C35.0719 20.1129 35.0719 19.6996 34.7754 19.4121L34.5598 19.1875H28.5313H22.5027L22.2871 19.4121Z" fill="white"/>
<path d="M17.9746 23.7246C17.8309 23.8594 17.75 24.048 17.75 24.2188C17.75 24.3895 17.8309 24.5781 17.9746 24.7129L18.1902 24.9375H26.375H34.5598L34.7754 24.7129C35.0719 24.4254 35.0719 24.0121 34.7754 23.7246L34.5598 23.5H26.375H18.1902L17.9746 23.7246Z" fill="white"/>
<path d="M36.6621 23.7246C36.5184 23.8594 36.4375 24.048 36.4375 24.2188C36.4375 24.3895 36.5184 24.5781 36.6621 24.7129C36.8777 24.9375 36.8957 24.9375 38.5938 24.9375C40.2918 24.9375 40.3098 24.9375 40.5254 24.7129C40.6691 24.5781 40.75 24.3895 40.75 24.2188C40.75 24.048 40.6691 23.8594 40.5254 23.7246C40.3098 23.5 40.2918 23.5 38.5938 23.5C36.8957 23.5 36.8777 23.5 36.6621 23.7246Z" fill="white"/>
<path d="M17.9746 28.0371C17.8309 28.1719 17.75 28.3605 17.75 28.5312C17.75 28.702 17.8309 28.8906 17.9746 29.0254L18.1902 29.25H29.25H40.3098L40.5254 29.0254C40.8219 28.7379 40.8219 28.3246 40.5254 28.0371L40.3098 27.8125H29.25H18.1902L17.9746 28.0371Z" fill="white"/>
<path d="M53.5977 30.7504C53.3191 30.8582 52.9418 31.1457 52.3129 31.7566L51.4234 32.6191L50.9383 32.5922C50.5879 32.5652 50.3543 32.6102 50.0758 32.7449C49.8062 32.8707 47.6949 34.9281 43.1129 39.5102L36.5273 46.0957L35.7637 48.7641C35.3414 50.2375 35 51.5223 35 51.6211C35 51.8637 35.3863 52.25 35.6289 52.25C35.7277 52.25 37.0125 51.9086 38.4859 51.4863L41.1543 50.7227L47.4254 44.4516L53.6965 38.1895L53.9121 38.441C54.1727 38.7285 54.2715 39.1867 54.1816 39.6449C54.1277 39.9324 53.8223 40.2918 52.1062 42.0168C50.2285 43.9035 50.0938 44.0652 50.0938 44.3617C50.0938 44.757 50.4262 45.0625 50.8484 45.0625C51.091 45.0625 51.3785 44.8109 53.1574 43.0141C55.5293 40.6332 55.6191 40.4984 55.6191 39.3125C55.6191 38.468 55.4574 38.0367 54.9273 37.3898C54.6758 37.0754 54.6488 36.9945 54.6488 36.4285V35.8086L55.5023 34.9281C56.6344 33.7602 56.859 33.1313 56.4996 32.0801C56.1133 30.9391 54.7926 30.3371 53.5977 30.7504ZM54.9543 32.2957C55.4125 32.7629 55.3316 33.0145 54.4512 33.9129L53.6965 34.6855L53.1305 34.1195L52.5645 33.5535L53.3371 32.7988C54.2355 31.9184 54.4871 31.8375 54.9543 32.2957ZM52.0883 35.1527C52.7262 35.7816 53.2383 36.3656 53.2383 36.4375C53.2383 36.5094 51.5582 38.2523 49.5098 40.3008L45.7812 44.0293L44.5055 42.7445L43.2207 41.4688L46.9492 37.7402C48.9977 35.6918 50.7406 34.0117 50.8125 34.0117C50.8844 34.0117 51.4594 34.5238 52.0883 35.1527ZM43.4902 43.8047L44.748 45.0625L42.7445 47.066L40.75 49.0605L39.4742 47.7758L38.1895 46.5L40.166 44.5234C41.2531 43.4363 42.1605 42.5469 42.1875 42.5469C42.2145 42.5469 42.7984 43.1129 43.4902 43.8047ZM39.2406 49.7434C39.1508 49.8332 36.8777 50.4711 36.8238 50.4262C36.7879 50.3813 37.3988 48.1441 37.4887 47.9914C37.5156 47.9555 37.9379 48.3148 38.423 48.8C38.9082 49.2852 39.2766 49.7074 39.2406 49.7434Z" fill="white"/>
<path d="M17.9837 32.3137C17.6513 32.5742 17.6513 33.1133 17.9837 33.3738C18.2083 33.5535 18.3431 33.5625 19.9243 33.5625C21.6044 33.5625 21.6224 33.5625 21.838 33.3379C21.9817 33.2031 22.0626 33.0145 22.0626 32.8438C22.0626 32.673 21.9817 32.4844 21.838 32.3496C21.6224 32.125 21.6044 32.125 19.9243 32.125C18.3431 32.125 18.2083 32.134 17.9837 32.3137Z" fill="white"/>
<path d="M23.7336 32.3137C23.5539 32.4574 23.5 32.5742 23.5 32.8438C23.5 33.1133 23.5539 33.2301 23.7336 33.3738C23.9762 33.5625 24.0121 33.5625 32.143 33.5625H40.3098L40.5254 33.3379C40.6691 33.2031 40.75 33.0145 40.75 32.8438C40.75 32.673 40.6691 32.4844 40.5254 32.3496L40.3098 32.125H32.143C24.0121 32.125 23.9762 32.125 23.7336 32.3137Z" fill="white"/>
<path d="M17.9746 36.6621C17.8309 36.7969 17.75 36.9855 17.75 37.1562C17.75 37.327 17.8309 37.5156 17.9746 37.6504L18.1902 37.875H29.25H40.3098L40.5254 37.6504C40.8219 37.3629 40.8219 36.9496 40.5254 36.6621L40.3098 36.4375H29.25H18.1902L17.9746 36.6621Z" fill="white"/>
<path d="M17.9746 40.9746C17.8309 41.1094 17.75 41.298 17.75 41.4688C17.75 41.6395 17.8309 41.8281 17.9746 41.9629L18.1902 42.1875H23.5H28.8098L29.0254 41.9629C29.3219 41.6754 29.3219 41.2621 29.0254 40.9746L28.8098 40.75H23.5H18.1902L17.9746 40.9746Z" fill="white"/>
<path d="M30.9121 40.9746C30.7684 41.1094 30.6875 41.298 30.6875 41.4688C30.6875 41.6395 30.7684 41.8281 30.9121 41.9629C31.1277 42.1875 31.1457 42.1875 32.8438 42.1875C34.5418 42.1875 34.5598 42.1875 34.7754 41.9629C34.9191 41.8281 35 41.6395 35 41.4688C35 41.298 34.9191 41.1094 34.7754 40.9746C34.5598 40.75 34.5418 40.75 32.8438 40.75C31.1457 40.75 31.1277 40.75 30.9121 40.9746Z" fill="white"/>
<path d="M27.9023 49.4199C27.5789 49.4918 26.8063 49.8062 26.1504 50.1297C25.5125 50.4531 24.7848 50.7676 24.5512 50.8215C23.5809 51.0551 22.6824 50.7137 22.0625 49.8691C21.7301 49.4199 21.6672 49.375 21.3527 49.375C20.9305 49.375 20.625 49.6715 20.625 50.0668C20.625 50.6418 21.6852 51.7289 22.5656 52.0613C23.7785 52.5195 24.8387 52.3758 26.5996 51.4953C27.8754 50.8574 28.2707 50.7227 28.8996 50.7227C29.4297 50.7227 30.1664 51.091 30.4898 51.5133C30.948 52.1062 31.1187 52.25 31.4062 52.25C31.7656 52.25 32.125 51.8996 32.125 51.5492C32.125 51.2258 31.6309 50.534 31.0559 50.0668C30.2562 49.4109 29.0434 49.1684 27.9023 49.4199Z" fill="white"/>
</g>
<defs>
<clipPath id="clip0_101_15304">
<rect width="46" height="46" fill="white" transform="translate(12 12)"/>
</clipPath>
</defs>
</svg>
