<svg width="70" height="70" viewBox="0 0 70 70" fill="none" xmlns="http://www.w3.org/2000/svg">
<circle cx="35" cy="35" r="35" fill="#92A3FE"/>
<g clip-path="url(#clip0_101_56070)">
<g clip-path="url(#clip1_101_56070)">
<path d="M48.9541 11.8311C48.3342 12.0377 47.84 12.3342 47.4627 12.7295C46.7439 13.4573 47.1572 12.0377 42.4404 30.0873C41.4611 33.8428 40.1494 38.8651 39.5295 41.2369C38.9096 43.6178 38.3975 45.6213 38.3975 45.7022C38.3975 45.9088 38.7119 46.2412 39.0084 46.3491L39.2779 46.4389L38.658 47.1487C38.1369 47.7506 38.0381 47.9123 38.0381 48.1909C38.0381 48.3705 38.2178 49.8889 38.4424 51.569C38.8736 54.7854 38.9365 55.028 39.3857 55.0909C39.8799 55.1717 39.9877 55.0549 42.0361 52.3147C43.1502 50.8323 44.0576 49.5475 44.0576 49.4487C44.0576 49.3049 43.8869 48.3975 43.7432 47.7776C43.7072 47.5979 43.7252 47.5889 44.0846 47.6248C44.8393 47.7147 44.4619 48.9276 48.8193 32.2526C50.9936 23.96 52.7725 17.1588 52.7904 17.1409C52.8084 17.1319 53.1588 17.2038 53.5631 17.3116C54.2189 17.4823 54.2998 17.5272 54.2639 17.6889C51.7662 27.1225 51.317 28.9733 51.4248 29.2248C51.6225 29.71 52.3682 29.8088 52.6287 29.3776C52.7006 29.2787 53.4643 26.4397 54.3447 23.0795C55.89 17.1588 55.926 16.9702 55.7912 16.6916C55.6475 16.3772 55.6025 16.3592 53.9404 15.928L53.1768 15.7303L53.1678 15.0475C53.1588 13.7448 52.458 12.6397 51.29 12.0647C50.6162 11.7323 49.565 11.6334 48.9541 11.8311ZM50.6971 13.3854C51.0385 13.5561 51.2541 13.7448 51.4338 14.0323C51.8022 14.6162 51.8291 15.0205 51.5686 16.0537C50.4455 20.4202 49.3314 24.6159 49.2775 24.6608C49.2326 24.7057 45.7107 23.8162 45.6299 23.7354C45.6029 23.7084 47.6334 15.8561 47.9748 14.6791C48.1635 14.0143 48.4779 13.628 49.035 13.3674C49.6369 13.0889 50.1041 13.0889 50.6971 13.3854ZM47.1572 25.685C48.0467 25.9186 48.8014 26.1342 48.8373 26.1702C48.9092 26.233 44.6236 42.7912 44.4979 42.926C44.435 42.9979 40.967 42.1713 40.8592 42.0545C40.8232 42.0186 45.0189 25.7928 45.1807 25.2987C45.2076 25.2358 45.2975 25.1998 45.3783 25.2268C45.4682 25.2537 46.2678 25.4604 47.1572 25.685ZM42.3236 43.9862C43.3029 44.2377 44.1115 44.4534 44.1205 44.4623C44.1295 44.4623 44.0486 44.8127 43.9408 45.226C43.7521 45.9358 43.7252 45.9897 43.5186 45.9807C43.3209 45.9717 40.0955 45.1541 40.0416 45.1002C39.9877 45.0463 40.4189 43.519 40.4818 43.519C40.5268 43.519 41.3533 43.7256 42.3236 43.9862ZM41.6588 47.0409C42.1709 47.1666 42.1709 47.1666 42.3955 48.3795L42.5572 49.242L41.3264 50.8772C40.6436 51.7846 40.0775 52.5034 40.0596 52.4854C40.0416 52.4674 39.8979 51.551 39.7541 50.4459C39.5385 48.8377 39.5025 48.3975 39.5924 48.2897C39.6463 48.2088 39.9607 47.8495 40.2752 47.4901C40.7424 46.96 40.8951 46.8432 41.0389 46.8881C41.1467 46.9151 41.4252 46.9869 41.6588 47.0409Z" fill="white"/>
<path d="M40.4818 48.7569C40.0775 49.1881 40.356 49.808 40.94 49.808C41.3173 49.808 41.5419 49.5745 41.5419 49.1971C41.5419 48.6221 40.8681 48.3436 40.4818 48.7569Z" fill="white"/>
<path d="M18.2998 49.3948C16.9341 50.0327 16.1076 51.7756 16.3771 53.4737C16.4759 54.1475 16.8802 55.1717 17.1677 55.4862C17.2486 55.576 17.2935 55.6748 17.2666 55.7018C17.2396 55.7288 16.9162 55.8545 16.5568 55.9803C16.0447 56.16 15.6584 56.2229 14.8767 56.2588C13.9244 56.2948 13.8525 56.3127 13.6908 56.5284C13.4482 56.8248 13.4662 57.1123 13.7267 57.4178C13.9423 57.6694 13.9603 57.6694 14.9666 57.6604C16.1345 57.6604 16.8084 57.5077 17.7966 57.0225L18.4345 56.7081L19.1084 56.9416C19.6384 57.1213 19.9619 57.1752 20.5908 57.1752C22.1181 57.1752 23.1873 56.6541 24.2294 55.3873C24.5709 54.9831 24.9841 54.5877 25.1459 54.5069C25.4334 54.3721 25.4693 54.3721 25.631 54.5159C25.7209 54.5967 25.8826 54.9022 25.9814 55.1807C26.5923 56.8338 27.6166 57.319 28.8294 56.5104C29.099 56.3307 29.3775 56.187 29.4494 56.187C29.5212 56.187 29.8986 56.3217 30.2849 56.4924C31.6056 57.0764 33.0431 57.1393 34.4177 56.6811C35.4959 56.3127 36.2236 55.8186 36.9873 54.9291C37.4095 54.426 37.4455 53.9678 37.0861 53.6803C36.6728 53.3569 36.4752 53.4288 35.7564 54.1475C35.0466 54.8663 34.4896 55.1897 33.5462 55.4323C32.6209 55.6659 31.7853 55.567 30.7072 55.1088C29.9345 54.7764 29.7548 54.7315 29.3056 54.7674C28.8923 54.7944 28.6947 54.8752 28.2814 55.1538L27.7783 55.5041L27.6255 55.3065C27.5447 55.1987 27.383 54.8393 27.2662 54.5159C26.9248 53.5456 26.206 52.9526 25.3974 52.9526C25.2896 52.9526 24.9662 53.0334 24.6876 53.1413C24.1576 53.3389 23.7982 53.6534 22.9627 54.6416C22.2978 55.4233 21.7947 55.6659 20.7615 55.7198C20.3212 55.7377 19.9349 55.7288 19.89 55.6838C19.8451 55.6389 19.9888 55.3694 20.2314 55.0549C21.633 53.2581 21.9115 51.0838 20.9052 49.9069C20.7255 49.6913 20.4111 49.4397 20.2134 49.3498C19.6744 49.1073 18.8837 49.1252 18.2998 49.3948ZM19.7552 50.7694C20.438 51.4432 19.89 53.5006 18.74 54.6057L18.4705 54.8573L18.2369 54.4889C17.9853 54.0846 17.7337 53.2581 17.7337 52.8178C17.7337 52.4135 17.9673 51.6858 18.2099 51.3264C18.6322 50.7065 19.4138 50.419 19.7552 50.7694Z" fill="white"/>
</g>
</g>
<defs>
<clipPath id="clip0_101_56070">
<rect width="46" height="46" fill="white" transform="translate(12 12)"/>
</clipPath>
<clipPath id="clip1_101_56070">
<rect width="46" height="46" fill="white" transform="translate(11.7139 11.7143)"/>
</clipPath>
</defs>
</svg>
