<svg width="70" height="70" viewBox="0 0 70 70" fill="none" xmlns="http://www.w3.org/2000/svg">
<circle cx="35" cy="35" r="35" fill="#0441CF"/>
<g clip-path="url(#clip0_101_9962)">
<g clip-path="url(#clip1_101_9962)">
<path d="M34.2544 12.0898C32.7809 12.4672 31.7387 13.9406 31.9094 15.432C31.9633 15.9352 32.3676 16.9504 32.5653 17.0672C32.6192 17.1031 32.6641 17.4086 32.6641 17.7949V18.4598L32.3766 18.5137C32.2149 18.5406 29.2231 19.0437 25.7372 19.6277C18.7653 20.7867 18.909 20.7508 18.5497 21.4605C18.3969 21.7391 18.37 21.9367 18.3969 22.35C18.4508 23.0867 18.8911 23.6258 19.5559 23.7605L19.8614 23.8234L19.8883 25.0004L19.9153 26.1773L15.9981 34.7844C13.8419 39.5281 12.054 43.5262 12.027 43.6789C12.0001 43.8316 12.027 44.182 12.0899 44.4605C12.4583 46.2574 14.0754 47.7398 16.618 48.6203C17.8129 49.0336 19.0169 49.2133 20.6251 49.2133C22.7094 49.2223 24.2997 48.9168 25.8001 48.216C28.0192 47.1738 29.3219 45.5926 29.3489 43.9215C29.3579 43.5352 28.9266 42.5469 25.3958 34.7844L21.4337 26.0785V24.9734V23.8594H27.0489H32.6641V31.9184V39.9863L32.3676 40.2738C32.1969 40.4355 32.0172 40.723 31.9633 40.9117C31.8825 41.1633 31.8555 42.8523 31.8555 46.7965V52.3309L30.445 52.7801C29.6633 53.0227 28.5672 53.373 28.0012 53.5437C26.7344 53.9391 26.2942 54.1996 25.9348 54.7297C25.5934 55.2598 25.5215 55.5742 25.5215 56.6793C25.5215 57.5418 25.5305 57.5687 25.7731 57.7844L26.0247 58H35.0001H43.9755L44.227 57.7844C44.4786 57.5687 44.4786 57.5508 44.4786 56.5355C44.4786 55.5742 44.4606 55.4844 44.209 54.9812C43.8497 54.2805 43.3825 53.975 42.0348 53.5527C41.4508 53.373 40.3368 53.0227 39.5641 52.7801L38.1446 52.3309V46.7965C38.1446 42.8523 38.1176 41.1633 38.0368 40.9117C37.9829 40.723 37.8032 40.4355 37.6325 40.2738L37.336 39.9863V31.9184V23.8594H42.9512H48.5665V24.9734V26.0785L44.6044 34.7844C40.3098 44.227 40.4895 43.7508 40.759 44.7301C41.2172 46.4371 43.1848 48.0723 45.6016 48.7371C48.1083 49.4379 51.154 49.393 53.3821 48.6203C54.8555 48.1082 56.0774 47.3715 56.8321 46.518C57.5868 45.6734 58.0989 44.4066 57.9731 43.6789C57.9462 43.5262 56.1583 39.5281 54.002 34.7844L50.0848 26.1773L50.1118 25.0004L50.1387 23.8234L50.4442 23.7605C51.109 23.6258 51.5493 23.0867 51.6032 22.35C51.6301 21.9367 51.6032 21.7391 51.4504 21.4605C51.0911 20.7508 51.2708 20.7957 44.0473 19.6277C40.4266 19.0437 37.4438 18.5586 37.4079 18.5586C37.2911 18.5586 37.327 17.1391 37.4348 17.0672C37.4887 17.0402 37.6504 16.7707 37.7852 16.4742C38.5579 14.848 37.8661 12.9883 36.2129 12.2605C35.7368 12.0539 34.7575 11.9641 34.2544 12.0898ZM35.6559 13.6531C36.9047 14.1742 36.9227 16.025 35.6829 16.591C34.443 17.157 33.1672 16.1148 33.4188 14.7402C33.4907 14.3629 33.9399 13.8148 34.3262 13.6531C34.6766 13.5004 35.2876 13.5004 35.6559 13.6531ZM35.8087 29.0344V39.8516H35.0001H34.1915V29.0344V18.2172H35.0001H35.8087V29.0344ZM32.6641 21.1641V22.332L26.2672 22.3141C22.2333 22.2961 19.8614 22.2512 19.8614 22.1973C19.8614 22.1344 31.9004 20.041 32.5114 20.0051C32.6462 19.9961 32.6641 20.1039 32.6641 21.1641ZM43.8587 21.1012C47.2727 21.6582 50.0758 22.1434 50.1028 22.1973C50.1297 22.2602 47.9645 22.2961 43.7419 22.3141L37.336 22.332V21.209C37.336 20.1937 37.354 20.0859 37.4977 20.0949C37.5786 20.0949 40.4446 20.5531 43.8587 21.1012ZM24.0751 35.4941C25.8989 39.4922 27.3993 42.8254 27.4262 42.8793C27.4622 42.9691 26.0786 42.9961 20.6879 42.9961H13.9047L17.2919 35.548C19.1516 31.4422 20.6969 28.118 20.7239 28.1539C20.7508 28.1898 22.2602 31.4871 24.0751 35.4941ZM52.8161 35.7816L56.0954 42.9961H49.3122C43.9215 42.9961 42.5379 42.9691 42.5739 42.8793C42.6008 42.8254 44.0653 39.6 45.8262 35.7187C47.5962 31.8375 49.0965 28.5223 49.1774 28.3516L49.3122 28.0371L49.429 28.3066C49.4919 28.4504 51.0192 31.8195 52.8161 35.7816ZM36.6172 46.7246V52.1602H35.0001H33.3829V46.7246V41.2891H35.0001H36.6172V46.7246ZM27.7227 44.5773C27.7227 44.8828 26.8962 45.8082 26.1954 46.2754C23.4641 48.0902 18.8461 48.243 15.7645 46.6258C15.0368 46.2395 14.1024 45.4129 13.8149 44.8918L13.6083 44.5234H20.661C24.5422 44.5234 27.7227 44.5504 27.7227 44.5773ZM56.1852 44.8918C55.8977 45.4129 54.9633 46.2395 54.2356 46.6258C51.154 48.243 46.536 48.0902 43.8047 46.2754C43.104 45.8082 42.2774 44.8828 42.2774 44.5773C42.2774 44.5504 45.4579 44.5234 49.3391 44.5234H56.3919L56.1852 44.8918ZM39.8965 54.4512C42.8883 55.3855 42.9962 55.4484 42.9962 56.1223V56.4727H35.0001H27.004V56.1223C27.004 55.4484 27.1208 55.3855 30.0587 54.4512L32.709 53.6156L34.9551 53.6066L37.2012 53.5977L39.8965 54.4512Z" fill="white"/>
</g>
</g>
<defs>
<clipPath id="clip0_101_9962">
<rect width="46" height="46" fill="white" transform="translate(12 12)"/>
</clipPath>
<clipPath id="clip1_101_9962">
<rect width="46" height="46" fill="white" transform="translate(12 12)"/>
</clipPath>
</defs>
</svg>
