<svg width="70" height="70" viewBox="0 0 70 70" fill="none" xmlns="http://www.w3.org/2000/svg">
<circle cx="35" cy="35" r="35" fill="#0441CF"/>
<g clip-path="url(#clip0_101_48202)">
<path d="M25.5215 15.0008C25.3777 15.0727 23.1586 17.2199 20.598 19.7895L15.9531 24.4523L15.9711 37.5605L15.998 50.6777L16.2676 51.1629C16.6 51.7559 17.0941 52.1961 17.723 52.4297C18.1902 52.6004 18.4148 52.6094 24.7219 52.6094H31.2445L38.8004 53.8762C44.6492 54.8555 46.491 55.134 46.9043 55.098C47.8387 55.0262 48.6563 54.4781 49.0606 53.6605C49.2492 53.2563 49.6895 50.7855 51.9895 37.0215C54.1457 24.1289 54.6848 20.7418 54.6488 20.3016C54.577 19.3672 54.0199 18.5586 53.1395 18.1094C52.8879 17.9746 51.7469 17.75 49.402 17.3547L46.0238 16.7977L45.8352 16.3934C45.5746 15.8363 44.9727 15.2793 44.3797 15.0637C43.8945 14.875 43.7598 14.875 34.8383 14.875C27.4082 14.884 25.7461 14.9019 25.5215 15.0008ZM43.9305 16.5371C44.0922 16.618 44.3078 16.8336 44.4156 17.0223L44.6133 17.3727V33.6883C44.6133 51.3965 44.6402 50.3363 44.1191 50.8125L43.8766 51.0371L31.1727 51.0641C17.175 51.082 18.0285 51.118 17.6602 50.525C17.4805 50.2285 17.4805 50.1027 17.4805 37.893V25.5664H21.6492C24.5242 25.5664 25.8988 25.5305 26.1055 25.4676C26.6355 25.2789 26.6445 25.225 26.6445 20.5801V16.4023H35.1438C42.6008 16.4023 43.6789 16.4203 43.9305 16.5371ZM25.0723 23.9223C25.0453 24.0121 24.3086 24.0391 21.775 24.0391H18.5137L21.793 20.7598L25.0723 17.4805L25.0992 20.643C25.1082 22.3859 25.0992 23.8684 25.0723 23.9223ZM49.2223 18.873C50.8664 19.1426 52.3398 19.4301 52.5016 19.5019C52.8609 19.6637 53.1484 20.1219 53.1484 20.5172C53.1484 21.0562 47.8297 52.6453 47.6859 52.9598C47.5063 53.3461 47.093 53.5977 46.6348 53.5887C46.4371 53.5887 45.0266 53.373 43.4902 53.1035L40.7051 52.6273L42.2414 52.6184C43.3285 52.6094 43.9035 52.5734 44.2359 52.4746C44.8469 52.2949 45.5926 51.6121 45.8801 50.9742L46.0957 50.498L46.1227 34.434C46.1316 25.6023 46.1676 18.3789 46.1945 18.3789C46.2215 18.3789 47.5781 18.6035 49.2223 18.873Z" fill="white"/>
<path d="M30.4633 22.9789C30.0051 23.2215 29.9062 23.8594 30.2656 24.2008L30.4723 24.3984H35.5305H40.5797L40.7953 24.1738C41.1727 23.8055 41.0738 23.2305 40.5977 22.9789C40.3281 22.8352 30.7238 22.8352 30.4633 22.9789Z" fill="white"/>
<path d="M22.4396 28.4863C21.9455 28.702 21.8467 29.3039 22.242 29.6992C22.4217 29.8789 22.5834 29.8789 31.5228 29.8789H40.633L40.8217 29.6723C41.1002 29.3758 41.0822 28.8906 40.7857 28.6121L40.5521 28.3965L31.6486 28.3785C24.1017 28.3605 22.6912 28.3785 22.4396 28.4863Z" fill="white"/>
<path d="M22.2419 34.1016C21.8376 34.5059 21.9455 35.1078 22.4665 35.3234C22.7361 35.4312 24.0119 35.4492 31.6665 35.4312L40.5521 35.4043L40.7857 35.1887C41.0912 34.9012 41.1091 34.398 40.8126 34.1195L40.606 33.9219H31.5138C22.5833 33.9219 22.4216 33.9219 22.2419 34.1016Z" fill="white"/>
<path d="M22.2417 39.582C21.8644 39.9594 21.9542 40.5793 22.4214 40.8129C22.6011 40.9027 24.4968 40.9207 31.6034 40.9027L40.5519 40.8848L40.7855 40.6691C41.1089 40.3637 41.1089 39.8426 40.7855 39.591C40.5429 39.4023 40.5159 39.4023 31.4866 39.4023C22.5831 39.4023 22.4214 39.4023 22.2417 39.582Z" fill="white"/>
<path d="M22.2606 45.0625C21.8473 45.4488 21.9282 46.0418 22.4223 46.2934C22.602 46.3832 24.6055 46.4102 31.5235 46.4102C40.9571 46.4102 40.8043 46.4192 40.9661 46.0059C41.0829 45.6914 41.02 45.3231 40.7954 45.1074L40.5797 44.8828H31.5145C22.5391 44.8828 22.4583 44.8828 22.2606 45.0625Z" fill="white"/>
</g>
<defs>
<clipPath id="clip0_101_48202">
<rect width="46" height="46" fill="white" transform="translate(12 12)"/>
</clipPath>
</defs>
</svg>
