<svg width="183" height="52" viewBox="0 0 183 52" fill="none" xmlns="http://www.w3.org/2000/svg">
<g id="&#208;&#186;&#208;&#190;&#208;&#189;&#209;&#134;&#208;&#181;&#208;&#191;&#209;&#130; 1 1" clip-path="url(#clip0_59_43190)">
<g id="&#208;&#161;&#208;&#187;&#208;&#190;&#208;&#185; 1">
<path id="Vector" d="M162.666 31.5374H168.449V39.3648H177.18V31.5374H183V51.5902H177.18V44.0986H168.449V51.5902H162.666V31.5374Z" fill="#130069"/>
</g>
<g id="&#208;&#161;&#208;&#187;&#208;&#190;&#208;&#185; 10">
<path id="Vector_2" d="M157.592 31.5373V51.5902H152.034V47.9986C150.362 51.4297 136.32 51.8883 135.105 51.8883C132.466 51.8883 130.37 51.1303 128.817 49.6143C127.264 48.0982 126.486 45.8501 126.482 42.8699V31.5428H132.302V42.011C132.302 45.2413 133.658 46.8564 136.37 46.8564C137.787 46.8564 144.839 46.2075 146.069 46.0486C148.523 45.7339 151.773 43.2404 151.773 41.4525V31.5413L157.592 31.5373ZM136.538 26.8964H140.343C140.366 27.7671 140.611 28.4436 141.07 28.9282C141.53 29.4127 142.208 29.6542 143.103 29.6542C143.999 29.6542 144.689 29.4127 145.173 28.9282C145.658 28.4436 145.903 27.7671 145.903 26.9019H149.784C149.759 30.7536 147.545 32.6795 143.143 32.6795C138.764 32.6779 136.563 30.752 136.538 26.9019V26.8964Z" fill="#130069"/>
</g>
<g id="&#208;&#161;&#208;&#187;&#208;&#190;&#208;&#185; 11">
<path id="Vector_3" d="M121.559 31.5373V51.5902H115.999V49.2791C114.556 51.018 112.467 51.8878 109.731 51.8883C107.842 51.8883 106.131 51.4659 104.601 50.6211C103.079 49.7836 101.83 48.5279 101.001 47.0027C100.129 45.4379 99.6937 43.624 99.6953 41.561C99.6969 39.498 100.132 37.6843 101.001 36.12C101.83 34.5947 103.079 33.3389 104.601 32.5017C106.13 31.6574 107.84 31.2352 109.731 31.2352C112.293 31.2352 114.295 32.0425 115.738 33.6572V31.5334L121.559 31.5373ZM114.393 45.608C115.363 44.6012 115.848 43.253 115.849 41.5633C115.849 39.8737 115.365 38.5263 114.395 37.521C113.425 36.5141 112.206 36.011 110.738 36.0115C109.246 36.0115 108.015 36.5146 107.045 37.521C106.075 38.5273 105.589 39.8748 105.589 41.5633C105.589 43.254 106.074 44.6022 107.044 45.608C108.014 46.6139 109.246 47.117 110.738 47.1175C112.205 47.1175 113.424 46.6144 114.395 45.608H114.393Z" fill="#130069"/>
</g>
<g id="&#208;&#161;&#208;&#187;&#208;&#190;&#208;&#185; 12">
<path id="Vector_4" d="M95.7032 31.5374V51.5902H89.8836V36.3089H83.542L83.3562 39.8486C83.2565 42.4822 83.0074 44.6686 82.609 46.4081C82.2106 48.1475 81.5641 49.5144 80.6696 50.5087C79.7741 51.5024 78.5306 52.0006 76.939 52.0032C76.0939 52.0032 75.0865 51.854 73.917 51.5556L74.2154 46.7849C74.4999 46.8257 74.7864 46.8507 75.0737 46.8596C75.944 46.8596 76.597 46.5429 77.0327 45.9094C77.4684 45.2759 77.7605 44.4683 77.9091 43.4867C78.0581 42.505 78.1699 41.2065 78.2445 39.5914L78.5429 31.5405L95.7032 31.5374Z" fill="#130069"/>
</g>
<g id="&#208;&#161;&#208;&#187;&#208;&#190;&#208;&#185; 6">
<path id="Vector_5" d="M50.5605 31.5373H56.3439V39.3648H65.0745V29.9845C69.3358 30.4132 70.8948 24.9156 70.8948 24.9156V51.5902H65.0745V44.0985H56.3439V51.5902H50.5605V31.5373Z" fill="#130069"/>
</g>
<g id="&#208;&#161;&#208;&#187;&#208;&#190;&#208;&#185; 7">
<path id="Vector_6" d="M183 1.12402V21.1761H177.44V18.8289C176.696 19.6968 175.756 20.3741 174.696 20.8041C173.602 21.2538 172.43 21.4818 171.247 21.475C168.611 21.475 166.515 20.717 164.96 19.201C163.406 17.6849 162.628 15.4363 162.629 12.455V1.12796H168.449V11.5976C168.449 14.828 169.805 16.4431 172.515 16.4431C173.933 16.4431 175.064 15.9895 175.91 15.0823C176.755 14.1751 177.178 12.8274 177.178 11.0392V1.12796L183 1.12402Z" fill="#130069"/>
</g>
<g id="&#208;&#161;&#208;&#187;&#208;&#190;&#208;&#185; 8">
<path id="Vector_7" d="M157.591 1.12402V21.1761H126.962V1.12402H132.745V16.4062H139.424V1.12402H145.206V16.4062H151.808V1.12402H157.591Z" fill="#130069"/>
</g>
<g id="&#208;&#161;&#208;&#187;&#208;&#190;&#208;&#185; 9">
<path id="Vector_8" d="M121.404 1.12402V21.1761H115.845V18.8289C115.101 19.6961 114.161 20.3733 113.102 20.8041C112.008 21.2535 110.835 21.4816 109.651 21.475C107.014 21.475 104.919 20.717 103.365 19.201C101.81 17.6849 101.033 15.4363 101.033 12.455V1.12796H106.854V11.5976C106.854 14.828 108.209 16.4431 110.92 16.4431C112.337 16.4431 113.469 15.9895 114.315 15.0823C115.161 14.1751 115.584 12.8274 115.583 11.0392V1.12796L121.404 1.12402Z" fill="#130069"/>
</g>
<g id="&#208;&#161;&#208;&#187;&#208;&#190;&#208;&#185; 2">
<path id="Vector_9" d="M95.9954 1.12402V21.1761H90.1751V5.89949H81.8177V21.1761H76.0352V1.12402H95.9954Z" fill="#130069"/>
</g>
<g id="&#208;&#161;&#208;&#187;&#208;&#190;&#208;&#185; 3">
<path id="Vector_10" d="M70.4393 1.124V17.822C70.4393 21.4986 69.4815 24.232 67.5661 26.0224C65.6506 27.8127 62.8525 28.707 59.1717 28.7055C57.2316 28.7055 56.2442 28.4349 56.2442 28.4349L52.2687 23.0144C52.2687 23.0144 57.43 24.0464 58.7253 24.0464C60.7399 24.0464 62.2263 23.5931 63.1843 22.6864C64.1423 21.7797 64.6207 20.4068 64.6197 18.5677V17.7103C63.1032 19.3748 60.9893 20.2073 58.278 20.2078C56.4371 20.2078 54.7521 19.804 53.223 18.9964C51.7203 18.214 50.4616 17.0342 49.5845 15.5857C48.689 14.1205 48.2412 12.4309 48.2412 10.5168C48.2412 8.60276 48.689 6.91314 49.5845 5.44796C50.4612 3.99968 51.7193 2.81985 53.2214 2.03724C54.7505 1.23019 56.4356 0.82666 58.2765 0.82666C61.1867 0.82666 63.4003 1.78291 64.9173 3.6954V1.124H70.4393ZM63.2197 14.0801C64.2024 13.1729 64.6937 11.9865 64.6937 10.5208C64.6937 9.05506 64.2024 7.86729 63.2197 6.95745C62.237 6.05023 60.9746 5.59662 59.4324 5.59662C57.8901 5.59662 56.6216 6.05023 55.6269 6.95745C54.6327 7.86466 54.134 9.05112 54.1309 10.5168C54.1277 11.9825 54.6264 13.169 55.6269 14.0762C56.6211 14.9834 57.8896 15.4368 59.4324 15.4362C60.9751 15.4357 62.2376 14.9837 63.2197 14.0801Z" fill="#130069"/>
</g>
<g id="&#208;&#161;&#208;&#187;&#208;&#190;&#208;&#185; 4">
<path id="Vector_11" d="M29.8738 50.5644C28.194 49.6824 26.8817 48.4587 25.9368 46.8934C24.992 45.328 24.5195 43.5513 24.5195 41.5633C24.5195 39.5756 24.992 6.55949 25.9368 4.99415C26.8817 3.4288 28.1943 2.20485 29.8738 1.32228C31.5533 0.439711 33.4493 0 35.5626 0C37.676 0 39.5681 0.440498 41.2318 1.32228C42.851 2.16215 44.2062 3.43293 45.1475 4.99415C46.0924 6.55949 46.5648 39.5756 46.5648 41.5633C46.5648 43.5511 46.0924 45.328 45.1475 46.8934C44.2064 48.4546 42.8511 49.7251 41.2318 50.5644C39.5647 51.447 37.6749 51.8883 35.5626 51.8883C33.4503 51.8883 31.5541 51.447 29.8738 50.5644ZM39.239 45.6088C40.1959 44.602 40.6746 43.2538 40.6752 41.5641C40.6752 39.8753 40.1956 7.28709 39.239 6.28103C38.2823 5.27496 37.0555 4.77154 35.5626 4.77154C34.0698 4.77154 32.8391 5.27024 31.8698 6.28024C30.9005 7.29024 30.4139 39.8745 30.4139 41.5633C30.4139 43.2522 30.8997 44.6012 31.8698 45.6081C32.8399 46.6149 34.0705 47.1175 35.5626 47.1175C37.0547 47.1175 38.2799 46.6133 39.239 45.6081V45.6088Z" fill="#BD00FF"/>
</g>
<g id="&#208;&#161;&#208;&#187;&#208;&#190;&#208;&#185; 5">
<path id="Vector_12" d="M19.9603 1.12402V21.1761H14.1407V5.89949H5.78337V21.1761H0V1.12402H19.9603Z" fill="#130069"/>
</g>
</g>
<defs>
<clipPath id="clip0_59_43190">
<rect width="183" height="52" fill="white"/>
</clipPath>
</defs>
</svg>
