<svg width="578" height="704" viewBox="0 0 578 704" fill="none" xmlns="http://www.w3.org/2000/svg">
<g filter="url(#filter0_d_131_15218)">
<rect x="25.5" width="549" height="675" rx="20" fill="white"/>
<rect x="35.5" y="10" width="529" height="655" rx="10" stroke="#424242" stroke-width="20"/>
</g>
<rect x="210.5" y="129" width="181" height="27" rx="13.5" fill="#E9ECFC"/>
<g clip-path="url(#clip0_131_15218)">
<circle cx="527" cy="42.5" r="10.5" fill="#E9ECFC"/>
<path d="M527 43.75C528.933 43.75 530.5 42.183 530.5 40.25C530.5 38.317 528.933 36.75 527 36.75C525.067 36.75 523.5 38.317 523.5 40.25C523.5 42.183 525.067 43.75 527 43.75Z" fill="#424242"/>
<path d="M534 49.3125C534 51.4869 534 53.25 527 53.25C520 53.25 520 51.4869 520 49.3125C520 47.1381 523.134 45.375 527 45.375C530.866 45.375 534 47.1381 534 49.3125Z" fill="#424242"/>
</g>
<g clip-path="url(#clip1_131_15218)">
<circle cx="518" cy="42.5" r="10.5" fill="#E9ECFC"/>
<path d="M518 43.75C519.933 43.75 521.5 42.183 521.5 40.25C521.5 38.317 519.933 36.75 518 36.75C516.067 36.75 514.5 38.317 514.5 40.25C514.5 42.183 516.067 43.75 518 43.75Z" fill="#424242"/>
<path d="M525 49.3125C525 51.4869 525 53.25 518 53.25C511 53.25 511 51.4869 511 49.3125C511 47.1381 514.134 45.375 518 45.375C521.866 45.375 525 47.1381 525 49.3125Z" fill="#424242"/>
</g>
<g clip-path="url(#clip2_131_15218)">
<circle cx="509" cy="42.5" r="10.5" fill="#E9ECFC"/>
<path d="M509 43.75C510.933 43.75 512.5 42.183 512.5 40.25C512.5 38.317 510.933 36.75 509 36.75C507.067 36.75 505.5 38.317 505.5 40.25C505.5 42.183 507.067 43.75 509 43.75Z" fill="#424242"/>
<path d="M516 49.3125C516 51.4869 516 53.25 509 53.25C502 53.25 502 51.4869 502 49.3125C502 47.1381 505.134 45.375 509 45.375C512.866 45.375 516 47.1381 516 49.3125Z" fill="#424242"/>
</g>
<circle cx="281" cy="42.5" r="5.5" fill="#2C8F9E"/>
<rect x="291.5" y="37" width="69" height="11" rx="5.5" fill="#E9ECFC"/>
<g clip-path="url(#clip3_131_15218)">
<path d="M130.389 46.7362H132.696V49.8973H136.178V46.7362H138.5V54.8345H136.178V51.809H132.696V54.8345H130.389V46.7362Z" fill="#130069"/>
<path d="M128.365 46.7362V54.8345H126.148V53.384C125.481 54.7696 119.879 54.9548 119.395 54.9548C118.342 54.9548 117.506 54.6487 116.886 54.0365C116.267 53.4242 115.956 52.5163 115.955 51.3128V46.7384H118.277V50.9659C118.277 52.2705 118.817 52.9227 119.899 52.9227C120.465 52.9227 123.278 52.6607 123.768 52.5965C124.747 52.4694 126.043 51.4624 126.043 50.7404V46.7378L128.365 46.7362ZM119.966 44.8619H121.484C121.494 45.2136 121.591 45.4868 121.774 45.6825C121.958 45.8782 122.228 45.9757 122.585 45.9757C122.942 45.9757 123.218 45.8782 123.411 45.6825C123.604 45.4868 123.702 45.2136 123.702 44.8642H125.25C125.24 46.4197 124.357 47.1974 122.601 47.1974C120.854 47.1968 119.976 46.419 119.966 44.8642V44.8619Z" fill="#130069"/>
<path d="M113.991 46.7362V54.8345H111.773V53.9012C111.198 54.6035 110.364 54.9547 109.273 54.9549C108.519 54.9549 107.837 54.7843 107.226 54.4432C106.619 54.105 106.121 53.5978 105.79 52.9819C105.442 52.3499 105.269 51.6174 105.27 50.7843C105.27 49.9511 105.444 49.2187 105.79 48.587C106.121 47.971 106.619 47.4638 107.226 47.1257C107.836 46.7847 108.519 46.6143 109.273 46.6143C110.295 46.6143 111.093 46.9403 111.669 47.5924V46.7347L113.991 46.7362ZM111.133 52.4187C111.519 52.0121 111.713 51.4676 111.713 50.7852C111.713 50.1029 111.52 49.5587 111.133 49.1527C110.746 48.7461 110.26 48.5429 109.675 48.5431C109.079 48.5431 108.588 48.7463 108.201 49.1527C107.814 49.5591 107.621 50.1033 107.621 50.7852C107.621 51.468 107.814 52.0125 108.201 52.4187C108.588 52.8249 109.079 53.0281 109.675 53.0283C110.26 53.0283 110.746 52.8251 111.133 52.4187H111.133Z" fill="#130069"/>
<path d="M103.677 46.7362V54.8345H101.356V48.6632H98.8258L98.7517 50.0927C98.7119 51.1562 98.6126 52.0392 98.4536 52.7417C98.2947 53.4442 98.0368 53.9962 97.68 54.3977C97.3228 54.799 96.8267 55.0002 96.1918 55.0013C95.8547 55.0013 95.4529 54.941 94.9863 54.8205L95.1054 52.8939C95.2188 52.9104 95.3331 52.9204 95.4477 52.924C95.7949 52.924 96.0554 52.7961 96.2292 52.5403C96.403 52.2845 96.5195 51.9583 96.5788 51.5619C96.6383 51.1654 96.6829 50.6411 96.7126 49.9888L96.8316 46.7375L103.677 46.7362Z" fill="#130069"/>
<path d="M85.6689 46.7363H87.976V49.8974H91.4587V46.1092C93.1585 46.2823 93.7804 44.0621 93.7804 44.0621V54.8345H91.4587V51.8091H87.976V54.8345H85.6689V46.7363Z" fill="#130069"/>
<path d="M138.5 34.454V42.5519H136.282V41.604C135.986 41.9545 135.61 42.228 135.188 42.4017C134.751 42.5833 134.284 42.6754 133.812 42.6727C132.76 42.6727 131.924 42.3665 131.304 41.7543C130.684 41.142 130.374 40.2339 130.374 39.03V34.4556H132.696V38.6837C132.696 39.9883 133.236 40.6405 134.318 40.6405C134.883 40.6405 135.335 40.4574 135.672 40.091C136.009 39.7246 136.178 39.1803 136.178 38.4582V34.4556L138.5 34.454Z" fill="#130069"/>
<path d="M128.365 34.454V42.5519H116.146V34.454H118.454V40.6256H121.118V34.454H123.424V40.6256H126.058V34.454H128.365Z" fill="#130069"/>
<path d="M113.929 34.454V42.5519H111.711V41.604C111.415 41.9542 111.039 42.2277 110.617 42.4017C110.181 42.5832 109.713 42.6753 109.24 42.6727C108.189 42.6727 107.353 42.3665 106.733 41.7543C106.113 41.142 105.803 40.2339 105.803 39.03V34.4556H108.125V38.6837C108.125 39.9883 108.665 40.6405 109.747 40.6405C110.312 40.6405 110.763 40.4574 111.101 40.091C111.438 39.7246 111.607 39.1803 111.607 38.4582V34.4556L113.929 34.454Z" fill="#130069"/>
<path d="M103.793 34.454V42.5519H101.472V36.3825H98.1378V42.5519H95.8311V34.454H103.793Z" fill="#130069"/>
<path d="M93.5991 34.4539V41.1974C93.5991 42.6821 93.2171 43.786 92.453 44.509C91.6889 45.2321 90.5727 45.5932 89.1044 45.5926C88.3305 45.5926 87.9366 45.4833 87.9366 45.4833L86.3507 43.2943C86.3507 43.2943 88.4096 43.7111 88.9263 43.7111C89.73 43.7111 90.3229 43.528 90.705 43.1618C91.0872 42.7957 91.278 42.2412 91.2776 41.4985V41.1523C90.6727 41.8244 89.8294 42.1606 88.7479 42.1609C88.0136 42.1609 87.3414 41.9978 86.7314 41.6716C86.132 41.3557 85.6299 40.8792 85.28 40.2942C84.9228 39.7025 84.7441 39.0202 84.7441 38.2472C84.7441 37.4742 84.9228 36.7919 85.28 36.2002C85.6297 35.6153 86.1316 35.1388 86.7308 34.8228C87.3408 34.4968 88.0129 34.3339 88.7473 34.3339C89.9082 34.3339 90.7912 34.72 91.3964 35.4924V34.4539H93.5991ZM90.7192 39.6862C91.1112 39.3199 91.3072 38.8407 91.3072 38.2488C91.3072 37.6569 91.1112 37.1772 90.7192 36.8098C90.3272 36.4434 89.8236 36.2602 89.2084 36.2602C88.5932 36.2602 88.0872 36.4434 87.6903 36.8098C87.2938 37.1761 87.0948 37.6553 87.0936 38.2472C87.0923 38.8391 87.2912 39.3183 87.6903 39.6846C88.0869 40.051 88.593 40.2341 89.2084 40.2339C89.8238 40.2337 90.3274 40.0511 90.7192 39.6862Z" fill="#130069"/>
<path d="M77.4171 54.4203C76.747 54.064 76.2235 53.5699 75.8466 52.9377C75.4697 52.3055 75.2812 51.588 75.2812 50.7852C75.2812 49.9825 75.4697 36.649 75.8466 36.0169C76.2235 35.3847 76.7471 34.8904 77.4171 34.534C78.0871 34.1776 78.8434 34 79.6864 34C80.5295 34 81.2842 34.1779 81.9479 34.534C82.5938 34.8732 83.1344 35.3864 83.5099 36.0169C83.8868 36.649 84.0753 49.9825 84.0753 50.7852C84.0753 51.5879 83.8868 52.3055 83.5099 52.9377C83.1345 53.5682 82.5939 54.0813 81.9479 54.4203C81.2829 54.7767 80.529 54.9549 79.6864 54.9549C78.8438 54.9549 78.0874 54.7767 77.4171 54.4203ZM81.1529 52.419C81.5347 52.0123 81.7256 51.4679 81.7258 50.7855C81.7258 50.1035 81.5346 36.9429 81.1529 36.5366C80.7713 36.1303 80.282 35.927 79.6864 35.927C79.0909 35.927 78.6 36.1284 78.2133 36.5363C77.8267 36.9441 77.6326 50.1032 77.6326 50.7852C77.6326 51.4672 77.8264 52.012 78.2133 52.4186C78.6003 52.8252 79.0912 53.0282 79.6864 53.0282C80.2816 53.0282 80.7704 52.8246 81.1529 52.4186V52.419Z" fill="#BD00FF"/>
<path d="M73.4623 34.454V42.5519H71.1408V36.3825H67.807V42.5519H65.5V34.454H73.4623Z" fill="#130069"/>
</g>
<g clip-path="url(#clip4_131_15218)">
<g clip-path="url(#clip5_131_15218)">
<rect x="67.5" y="190" width="85" height="85" rx="5" fill="#E9ECFC"/>
<path d="M138.5 199V278.004C130.552 283.962 120.692 287.5 109.999 287.5C99.3075 287.5 89.4464 283.963 81.5 278.004V199H138.5Z" fill="#DADEF9"/>
<path d="M102.074 213.948C102.074 215.775 101.418 217.46 100.334 218.758C98.9495 220.416 96.876 221.467 94.5545 221.467C92.233 221.467 90.1536 220.416 88.7748 218.758C87.6907 217.46 87.0352 215.775 87.0352 213.948C87.0352 209.794 90.4002 206.429 94.5545 206.429C98.7029 206.43 102.074 209.795 102.074 213.948Z" fill="url(#paint0_linear_131_15218)"/>
<path d="M94.5516 208.344C92.394 208.344 92.1309 210.118 92.1309 211.235C92.1309 212.351 92.603 214.378 94.5516 214.378C96.5002 214.378 96.9724 212.351 96.9724 211.235C96.9724 210.118 96.7092 208.344 94.5516 208.344Z" fill="white"/>
<path d="M100.334 217.581V218.758C98.9491 220.416 96.8757 221.467 94.5542 221.467C92.2326 221.467 90.1532 220.416 88.7744 218.758V217.581C88.7744 215.936 90.2795 215.319 92.7814 214.377C92.7814 214.377 93.3438 215.106 94.5542 215.106C95.7645 215.106 96.3269 214.377 96.3269 214.377C98.8288 215.319 100.334 215.936 100.334 217.581Z" fill="white"/>
<path d="M124.5 208H108.5V210H124.5V208Z" fill="#E9ECFC"/>
<path d="M124.5 213H108.5V215H124.5V213Z" fill="#E9ECFC"/>
<path d="M124.5 218H108.5V220H124.5V218Z" fill="#E9ECFC"/>
<path d="M131.5 224H87.5V226H131.5V224Z" fill="#E9ECFC"/>
<path d="M131.5 230H87.5V232H131.5V230Z" fill="#E9ECFC"/>
<path d="M131.5 236H87.5V238H131.5V236Z" fill="#E9ECFC"/>
<path d="M131.5 242H87.5V244H131.5V242Z" fill="#E9ECFC"/>
<path d="M131.5 248H87.5V250H131.5V248Z" fill="#E9ECFC"/>
<path d="M131.5 254H87.5V256H131.5V254Z" fill="#E9ECFC"/>
<path d="M131.5 260H87.5V262H131.5V260Z" fill="#E9ECFC"/>
<path d="M118.889 270.629C119.208 270.422 119.507 270.244 119.742 269.945C120.193 269.37 120.707 268.908 120.814 268.158C120.857 267.858 120.846 267.577 120.722 267.297C120.702 267.251 120.593 266.824 120.551 266.822C120.453 266.816 120.397 267.162 120.383 267.206C120.193 267.772 119.961 268.319 119.796 268.894C119.537 269.797 119.155 270.919 119.291 271.869C119.343 272.232 119.739 271.734 119.812 271.651C120.286 271.116 120.662 270.531 121.211 270.056C121.935 269.43 123.063 268.695 124.087 268.715C124.371 268.721 124.327 268.951 124.233 269.146C124.037 269.555 123.637 269.886 123.226 270.087C122.623 270.382 121.945 270.447 121.284 270.536C120.675 270.618 120.064 270.707 119.448 270.72C119.055 270.728 118.633 270.758 118.243 270.697C117.988 270.657 118.034 270.614 118.226 270.5C119.761 269.588 121.401 269.038 123.128 268.529C123.442 268.436 123.755 268.368 124.07 268.285C124.124 268.271 123.963 268.254 123.907 268.254C122.91 268.254 121.886 268.396 120.931 268.669C120.013 268.931 119.152 269.358 118.259 269.685C117.534 269.951 116.755 270.305 115.975 270.386C115.926 270.391 115.492 270.378 115.5 270.373C115.646 270.273 115.866 270.216 116.027 270.116C118.296 268.704 120.832 267.711 123.345 266.778C125.141 266.111 126.936 265.442 128.768 264.871C129.679 264.588 130.583 264.25 131.5 264" stroke="#E9ECFC" stroke-width="0.5" stroke-linecap="round"/>
</g>
<rect x="164.5" y="190" width="69" height="11" rx="5.5" fill="#E9ECFC"/>
<rect x="164.5" y="207" width="30" height="4" rx="2" fill="#E9ECFC"/>
<rect x="243.5" y="207" width="30" height="4" rx="2" fill="#E9ECFC"/>
<rect x="164.5" y="214" width="109" height="1" rx="0.5" fill="#E9ECFC"/>
<rect x="164.5" y="221" width="38" height="4" rx="2" fill="#E9ECFC"/>
<rect x="250.5" y="221" width="23" height="4" rx="2" fill="#E9ECFC"/>
<rect x="164.5" y="228" width="109" height="1" rx="0.5" fill="#E9ECFC"/>
<rect x="164.5" y="235" width="30" height="4" rx="2" fill="#E9ECFC"/>
<rect x="260.5" y="235" width="13" height="4" rx="2" fill="#E9ECFC"/>
<rect x="164.5" y="242" width="109" height="1" rx="0.5" fill="#E9ECFC"/>
<rect x="164.5" y="249" width="48" height="4" rx="2" fill="#E9ECFC"/>
<rect x="243.5" y="249" width="30" height="4" rx="2" fill="#E9ECFC"/>
<rect x="164.5" y="256" width="109" height="1" rx="0.5" fill="#E9ECFC"/>
<rect x="164.5" y="266" width="38" height="9" rx="4.5" fill="#E9ECFC"/>
<g clip-path="url(#clip6_131_15218)">
<rect x="330.5" y="190" width="85" height="85" rx="5" fill="#E9ECFC"/>
<path d="M401.5 199V278.004C393.552 283.962 383.692 287.5 372.999 287.5C362.308 287.5 352.446 283.963 344.5 278.004V199H401.5Z" fill="#DADEF9"/>
<path d="M365.074 213.948C365.074 215.775 364.418 217.46 363.334 218.758C361.949 220.416 359.876 221.467 357.555 221.467C355.233 221.467 353.154 220.416 351.775 218.758C350.691 217.46 350.035 215.775 350.035 213.948C350.035 209.794 353.4 206.429 357.555 206.429C361.703 206.43 365.074 209.795 365.074 213.948Z" fill="url(#paint1_linear_131_15218)"/>
<path d="M357.552 208.344C355.394 208.344 355.131 210.118 355.131 211.235C355.131 212.351 355.603 214.378 357.552 214.378C359.5 214.378 359.972 212.351 359.972 211.235C359.972 210.118 359.709 208.344 357.552 208.344Z" fill="white"/>
<path d="M363.334 217.581V218.758C361.949 220.416 359.876 221.467 357.554 221.467C355.233 221.467 353.153 220.416 351.774 218.758V217.581C351.774 215.936 353.28 215.319 355.781 214.377C355.781 214.377 356.344 215.106 357.554 215.106C358.765 215.106 359.327 214.377 359.327 214.377C361.829 215.319 363.334 215.936 363.334 217.581Z" fill="white"/>
<path d="M387.5 208H371.5V210H387.5V208Z" fill="#E9ECFC"/>
<path d="M387.5 213H371.5V215H387.5V213Z" fill="#E9ECFC"/>
<path d="M387.5 218H371.5V220H387.5V218Z" fill="#E9ECFC"/>
<path d="M394.5 224H350.5V226H394.5V224Z" fill="#E9ECFC"/>
<path d="M394.5 230H350.5V232H394.5V230Z" fill="#E9ECFC"/>
<path d="M394.5 236H350.5V238H394.5V236Z" fill="#E9ECFC"/>
<path d="M394.5 242H350.5V244H394.5V242Z" fill="#E9ECFC"/>
<path d="M394.5 248H350.5V250H394.5V248Z" fill="#E9ECFC"/>
<path d="M394.5 254H350.5V256H394.5V254Z" fill="#E9ECFC"/>
<path d="M394.5 260H350.5V262H394.5V260Z" fill="#E9ECFC"/>
<path d="M381.889 270.629C382.208 270.422 382.507 270.244 382.742 269.945C383.193 269.37 383.707 268.908 383.814 268.158C383.857 267.858 383.846 267.577 383.722 267.297C383.702 267.251 383.593 266.824 383.551 266.822C383.453 266.816 383.397 267.162 383.383 267.206C383.193 267.772 382.961 268.319 382.796 268.894C382.537 269.797 382.155 270.919 382.291 271.869C382.343 272.232 382.739 271.734 382.812 271.651C383.286 271.116 383.662 270.531 384.211 270.056C384.935 269.43 386.063 268.695 387.087 268.715C387.371 268.721 387.327 268.951 387.233 269.146C387.037 269.555 386.637 269.886 386.226 270.087C385.623 270.382 384.945 270.447 384.284 270.536C383.675 270.618 383.064 270.707 382.448 270.72C382.055 270.728 381.633 270.758 381.243 270.697C380.988 270.657 381.034 270.614 381.226 270.5C382.761 269.588 384.401 269.038 386.128 268.529C386.442 268.436 386.755 268.368 387.07 268.285C387.124 268.271 386.963 268.254 386.907 268.254C385.91 268.254 384.886 268.396 383.931 268.669C383.013 268.931 382.152 269.358 381.259 269.685C380.534 269.951 379.755 270.305 378.975 270.386C378.926 270.391 378.492 270.378 378.5 270.373C378.646 270.273 378.866 270.216 379.027 270.116C381.296 268.704 383.832 267.711 386.345 266.778C388.141 266.111 389.936 265.442 391.768 264.871C392.679 264.588 393.583 264.25 394.5 264" stroke="#E9ECFC" stroke-width="0.5" stroke-linecap="round"/>
</g>
<rect x="427.5" y="190" width="69" height="11" rx="5.5" fill="#E9ECFC"/>
<rect x="427.5" y="207" width="30" height="4" rx="2" fill="#E9ECFC"/>
<rect x="506.5" y="207" width="30" height="4" rx="2" fill="#E9ECFC"/>
<rect x="427.5" y="214" width="109" height="1" rx="0.5" fill="#E9ECFC"/>
<rect x="427.5" y="221" width="38" height="4" rx="2" fill="#E9ECFC"/>
<rect x="513.5" y="221" width="23" height="4" rx="2" fill="#E9ECFC"/>
<rect x="427.5" y="228" width="109" height="1" rx="0.5" fill="#E9ECFC"/>
<rect x="427.5" y="235" width="30" height="4" rx="2" fill="#E9ECFC"/>
<rect x="523.5" y="235" width="13" height="4" rx="2" fill="#E9ECFC"/>
<rect x="427.5" y="242" width="109" height="1" rx="0.5" fill="#E9ECFC"/>
<rect x="427.5" y="249" width="48" height="4" rx="2" fill="#E9ECFC"/>
<rect x="506.5" y="249" width="30" height="4" rx="2" fill="#E9ECFC"/>
<rect x="427.5" y="256" width="109" height="1" rx="0.5" fill="#E9ECFC"/>
<rect x="427.5" y="266" width="38" height="9" rx="4.5" fill="#E9ECFC"/>
<g clip-path="url(#clip7_131_15218)">
<rect x="67.5" y="293" width="85" height="85" rx="5" fill="#E9ECFC"/>
<path d="M138.5 302V381.004C130.552 386.962 120.692 390.5 109.999 390.5C99.3075 390.5 89.4464 386.963 81.5 381.004V302H138.5Z" fill="#DADEF9"/>
<path d="M102.074 316.948C102.074 318.775 101.418 320.46 100.334 321.758C98.9495 323.416 96.876 324.467 94.5545 324.467C92.233 324.467 90.1536 323.416 88.7748 321.758C87.6907 320.46 87.0352 318.775 87.0352 316.948C87.0352 312.794 90.4002 309.429 94.5545 309.429C98.7029 309.43 102.074 312.795 102.074 316.948Z" fill="url(#paint2_linear_131_15218)"/>
<path d="M94.5516 311.344C92.394 311.344 92.1309 313.118 92.1309 314.235C92.1309 315.351 92.603 317.378 94.5516 317.378C96.5002 317.378 96.9724 315.351 96.9724 314.235C96.9724 313.118 96.7092 311.344 94.5516 311.344Z" fill="white"/>
<path d="M100.334 320.581V321.758C98.9491 323.416 96.8757 324.467 94.5542 324.467C92.2326 324.467 90.1532 323.416 88.7744 321.758V320.581C88.7744 318.936 90.2795 318.319 92.7814 317.377C92.7814 317.377 93.3438 318.106 94.5542 318.106C95.7645 318.106 96.3269 317.377 96.3269 317.377C98.8288 318.319 100.334 318.936 100.334 320.581Z" fill="white"/>
<path d="M124.5 311H108.5V313H124.5V311Z" fill="#E9ECFC"/>
<path d="M124.5 316H108.5V318H124.5V316Z" fill="#E9ECFC"/>
<path d="M124.5 321H108.5V323H124.5V321Z" fill="#E9ECFC"/>
<path d="M131.5 327H87.5V329H131.5V327Z" fill="#E9ECFC"/>
<path d="M131.5 333H87.5V335H131.5V333Z" fill="#E9ECFC"/>
<path d="M131.5 339H87.5V341H131.5V339Z" fill="#E9ECFC"/>
<path d="M131.5 345H87.5V347H131.5V345Z" fill="#E9ECFC"/>
<path d="M131.5 351H87.5V353H131.5V351Z" fill="#E9ECFC"/>
<path d="M131.5 357H87.5V359H131.5V357Z" fill="#E9ECFC"/>
<path d="M131.5 363H87.5V365H131.5V363Z" fill="#E9ECFC"/>
<path d="M118.889 373.629C119.208 373.422 119.507 373.244 119.742 372.945C120.193 372.37 120.707 371.908 120.814 371.158C120.857 370.858 120.846 370.577 120.722 370.297C120.702 370.251 120.593 369.824 120.551 369.822C120.453 369.816 120.397 370.162 120.383 370.206C120.193 370.772 119.961 371.319 119.796 371.894C119.537 372.797 119.155 373.919 119.291 374.869C119.343 375.232 119.739 374.734 119.812 374.651C120.286 374.116 120.662 373.531 121.211 373.056C121.935 372.43 123.063 371.695 124.087 371.715C124.371 371.721 124.327 371.951 124.233 372.146C124.037 372.555 123.637 372.886 123.226 373.087C122.623 373.382 121.945 373.447 121.284 373.536C120.675 373.618 120.064 373.707 119.448 373.72C119.055 373.728 118.633 373.758 118.243 373.697C117.988 373.657 118.034 373.614 118.226 373.5C119.761 372.588 121.401 372.038 123.128 371.529C123.442 371.436 123.755 371.368 124.07 371.285C124.124 371.271 123.963 371.254 123.907 371.254C122.91 371.254 121.886 371.396 120.931 371.669C120.013 371.931 119.152 372.358 118.259 372.685C117.534 372.951 116.755 373.305 115.975 373.386C115.926 373.391 115.492 373.378 115.5 373.373C115.646 373.273 115.866 373.216 116.027 373.116C118.296 371.704 120.832 370.711 123.345 369.778C125.141 369.111 126.936 368.442 128.768 367.871C129.679 367.588 130.583 367.25 131.5 367" stroke="#E9ECFC" stroke-width="0.5" stroke-linecap="round"/>
</g>
<rect x="164.5" y="293" width="69" height="11" rx="5.5" fill="#E9ECFC"/>
<rect x="164.5" y="310" width="30" height="4" rx="2" fill="#E9ECFC"/>
<rect x="243.5" y="310" width="30" height="4" rx="2" fill="#E9ECFC"/>
<rect x="164.5" y="317" width="109" height="1" rx="0.5" fill="#E9ECFC"/>
<rect x="164.5" y="324" width="38" height="4" rx="2" fill="#E9ECFC"/>
<rect x="250.5" y="324" width="23" height="4" rx="2" fill="#E9ECFC"/>
<rect x="164.5" y="331" width="109" height="1" rx="0.5" fill="#E9ECFC"/>
<rect x="164.5" y="338" width="30" height="4" rx="2" fill="#E9ECFC"/>
<rect x="260.5" y="338" width="13" height="4" rx="2" fill="#E9ECFC"/>
<rect x="164.5" y="345" width="109" height="1" rx="0.5" fill="#E9ECFC"/>
<rect x="164.5" y="352" width="48" height="4" rx="2" fill="#E9ECFC"/>
<rect x="243.5" y="352" width="30" height="4" rx="2" fill="#E9ECFC"/>
<rect x="164.5" y="359" width="109" height="1" rx="0.5" fill="#E9ECFC"/>
<rect x="164.5" y="369" width="38" height="9" rx="4.5" fill="#E9ECFC"/>
<g clip-path="url(#clip8_131_15218)">
<rect x="330.5" y="293" width="85" height="85" rx="5" fill="#E9ECFC"/>
<path d="M401.5 302V381.004C393.552 386.962 383.692 390.5 372.999 390.5C362.308 390.5 352.446 386.963 344.5 381.004V302H401.5Z" fill="#DADEF9"/>
<path d="M365.074 316.948C365.074 318.775 364.418 320.46 363.334 321.758C361.949 323.416 359.876 324.467 357.555 324.467C355.233 324.467 353.154 323.416 351.775 321.758C350.691 320.46 350.035 318.775 350.035 316.948C350.035 312.794 353.4 309.429 357.555 309.429C361.703 309.43 365.074 312.795 365.074 316.948Z" fill="url(#paint3_linear_131_15218)"/>
<path d="M357.552 311.344C355.394 311.344 355.131 313.118 355.131 314.235C355.131 315.351 355.603 317.378 357.552 317.378C359.5 317.378 359.972 315.351 359.972 314.235C359.972 313.118 359.709 311.344 357.552 311.344Z" fill="white"/>
<path d="M363.334 320.581V321.758C361.949 323.416 359.876 324.467 357.554 324.467C355.233 324.467 353.153 323.416 351.774 321.758V320.581C351.774 318.936 353.28 318.319 355.781 317.377C355.781 317.377 356.344 318.106 357.554 318.106C358.765 318.106 359.327 317.377 359.327 317.377C361.829 318.319 363.334 318.936 363.334 320.581Z" fill="white"/>
<path d="M387.5 311H371.5V313H387.5V311Z" fill="#E9ECFC"/>
<path d="M387.5 316H371.5V318H387.5V316Z" fill="#E9ECFC"/>
<path d="M387.5 321H371.5V323H387.5V321Z" fill="#E9ECFC"/>
<path d="M394.5 327H350.5V329H394.5V327Z" fill="#E9ECFC"/>
<path d="M394.5 333H350.5V335H394.5V333Z" fill="#E9ECFC"/>
<path d="M394.5 339H350.5V341H394.5V339Z" fill="#E9ECFC"/>
<path d="M394.5 345H350.5V347H394.5V345Z" fill="#E9ECFC"/>
<path d="M394.5 351H350.5V353H394.5V351Z" fill="#E9ECFC"/>
<path d="M394.5 357H350.5V359H394.5V357Z" fill="#E9ECFC"/>
<path d="M394.5 363H350.5V365H394.5V363Z" fill="#E9ECFC"/>
<path d="M381.889 373.629C382.208 373.422 382.507 373.244 382.742 372.945C383.193 372.37 383.707 371.908 383.814 371.158C383.857 370.858 383.846 370.577 383.722 370.297C383.702 370.251 383.593 369.824 383.551 369.822C383.453 369.816 383.397 370.162 383.383 370.206C383.193 370.772 382.961 371.319 382.796 371.894C382.537 372.797 382.155 373.919 382.291 374.869C382.343 375.232 382.739 374.734 382.812 374.651C383.286 374.116 383.662 373.531 384.211 373.056C384.935 372.43 386.063 371.695 387.087 371.715C387.371 371.721 387.327 371.951 387.233 372.146C387.037 372.555 386.637 372.886 386.226 373.087C385.623 373.382 384.945 373.447 384.284 373.536C383.675 373.618 383.064 373.707 382.448 373.72C382.055 373.728 381.633 373.758 381.243 373.697C380.988 373.657 381.034 373.614 381.226 373.5C382.761 372.588 384.401 372.038 386.128 371.529C386.442 371.436 386.755 371.368 387.07 371.285C387.124 371.271 386.963 371.254 386.907 371.254C385.91 371.254 384.886 371.396 383.931 371.669C383.013 371.931 382.152 372.358 381.259 372.685C380.534 372.951 379.755 373.305 378.975 373.386C378.926 373.391 378.492 373.378 378.5 373.373C378.646 373.273 378.866 373.216 379.027 373.116C381.296 371.704 383.832 370.711 386.345 369.778C388.141 369.111 389.936 368.442 391.768 367.871C392.679 367.588 393.583 367.25 394.5 367" stroke="#E9ECFC" stroke-width="0.5" stroke-linecap="round"/>
</g>
<rect x="427.5" y="293" width="69" height="11" rx="5.5" fill="#E9ECFC"/>
<rect x="427.5" y="310" width="30" height="4" rx="2" fill="#E9ECFC"/>
<rect x="506.5" y="310" width="30" height="4" rx="2" fill="#E9ECFC"/>
<rect x="427.5" y="317" width="109" height="1" rx="0.5" fill="#E9ECFC"/>
<rect x="427.5" y="324" width="38" height="4" rx="2" fill="#E9ECFC"/>
<rect x="513.5" y="324" width="23" height="4" rx="2" fill="#E9ECFC"/>
<rect x="427.5" y="331" width="109" height="1" rx="0.5" fill="#E9ECFC"/>
<rect x="427.5" y="338" width="30" height="4" rx="2" fill="#E9ECFC"/>
<rect x="523.5" y="338" width="13" height="4" rx="2" fill="#E9ECFC"/>
<rect x="427.5" y="345" width="109" height="1" rx="0.5" fill="#E9ECFC"/>
<rect x="427.5" y="352" width="48" height="4" rx="2" fill="#E9ECFC"/>
<rect x="506.5" y="352" width="30" height="4" rx="2" fill="#E9ECFC"/>
<rect x="427.5" y="359" width="109" height="1" rx="0.5" fill="#E9ECFC"/>
<rect x="427.5" y="369" width="38" height="9" rx="4.5" fill="#E9ECFC"/>
<g clip-path="url(#clip9_131_15218)">
<rect x="67.5" y="396" width="85" height="85" rx="5" fill="#E9ECFC"/>
<path d="M138.5 405V484.004C130.552 489.962 120.692 493.5 109.999 493.5C99.3075 493.5 89.4464 489.963 81.5 484.004V405H138.5Z" fill="#DADEF9"/>
<path d="M102.074 419.948C102.074 421.775 101.418 423.46 100.334 424.758C98.9495 426.416 96.876 427.467 94.5545 427.467C92.233 427.467 90.1536 426.416 88.7748 424.758C87.6907 423.46 87.0352 421.775 87.0352 419.948C87.0352 415.794 90.4002 412.429 94.5545 412.429C98.7029 412.43 102.074 415.795 102.074 419.948Z" fill="url(#paint4_linear_131_15218)"/>
<path d="M94.5516 414.344C92.394 414.344 92.1309 416.118 92.1309 417.235C92.1309 418.351 92.603 420.378 94.5516 420.378C96.5002 420.378 96.9724 418.351 96.9724 417.235C96.9724 416.118 96.7092 414.344 94.5516 414.344Z" fill="white"/>
<path d="M100.334 423.581V424.758C98.9491 426.416 96.8757 427.467 94.5542 427.467C92.2326 427.467 90.1532 426.416 88.7744 424.758V423.581C88.7744 421.936 90.2795 421.319 92.7814 420.377C92.7814 420.377 93.3438 421.106 94.5542 421.106C95.7645 421.106 96.3269 420.377 96.3269 420.377C98.8288 421.319 100.334 421.936 100.334 423.581Z" fill="white"/>
<path d="M124.5 414H108.5V416H124.5V414Z" fill="#E9ECFC"/>
<path d="M124.5 419H108.5V421H124.5V419Z" fill="#E9ECFC"/>
<path d="M124.5 424H108.5V426H124.5V424Z" fill="#E9ECFC"/>
<path d="M131.5 430H87.5V432H131.5V430Z" fill="#E9ECFC"/>
<path d="M131.5 436H87.5V438H131.5V436Z" fill="#E9ECFC"/>
<path d="M131.5 442H87.5V444H131.5V442Z" fill="#E9ECFC"/>
<path d="M131.5 448H87.5V450H131.5V448Z" fill="#E9ECFC"/>
<path d="M131.5 454H87.5V456H131.5V454Z" fill="#E9ECFC"/>
<path d="M131.5 460H87.5V462H131.5V460Z" fill="#E9ECFC"/>
<path d="M131.5 466H87.5V468H131.5V466Z" fill="#E9ECFC"/>
<path d="M118.889 476.629C119.208 476.422 119.507 476.244 119.742 475.945C120.193 475.37 120.707 474.908 120.814 474.158C120.857 473.858 120.846 473.577 120.722 473.297C120.702 473.251 120.593 472.824 120.551 472.822C120.453 472.816 120.397 473.162 120.383 473.206C120.193 473.772 119.961 474.319 119.796 474.894C119.537 475.797 119.155 476.919 119.291 477.869C119.343 478.232 119.739 477.734 119.812 477.651C120.286 477.116 120.662 476.531 121.211 476.056C121.935 475.43 123.063 474.695 124.087 474.715C124.371 474.721 124.327 474.951 124.233 475.146C124.037 475.555 123.637 475.886 123.226 476.087C122.623 476.382 121.945 476.447 121.284 476.536C120.675 476.618 120.064 476.707 119.448 476.72C119.055 476.728 118.633 476.758 118.243 476.697C117.988 476.657 118.034 476.614 118.226 476.5C119.761 475.588 121.401 475.038 123.128 474.529C123.442 474.436 123.755 474.368 124.07 474.285C124.124 474.271 123.963 474.254 123.907 474.254C122.91 474.254 121.886 474.396 120.931 474.669C120.013 474.931 119.152 475.358 118.259 475.685C117.534 475.951 116.755 476.305 115.975 476.386C115.926 476.391 115.492 476.378 115.5 476.373C115.646 476.273 115.866 476.216 116.027 476.116C118.296 474.704 120.832 473.711 123.345 472.778C125.141 472.111 126.936 471.442 128.768 470.871C129.679 470.588 130.583 470.25 131.5 470" stroke="#E9ECFC" stroke-width="0.5" stroke-linecap="round"/>
</g>
<rect x="164.5" y="396" width="69" height="11" rx="5.5" fill="#E9ECFC"/>
<rect x="164.5" y="413" width="30" height="4" rx="2" fill="#E9ECFC"/>
<rect x="243.5" y="413" width="30" height="4" rx="2" fill="#E9ECFC"/>
<rect x="164.5" y="420" width="109" height="1" rx="0.5" fill="#E9ECFC"/>
<rect x="164.5" y="427" width="38" height="4" rx="2" fill="#E9ECFC"/>
<rect x="250.5" y="427" width="23" height="4" rx="2" fill="#E9ECFC"/>
<rect x="164.5" y="434" width="109" height="1" rx="0.5" fill="#E9ECFC"/>
<rect x="164.5" y="441" width="30" height="4" rx="2" fill="#E9ECFC"/>
<rect x="260.5" y="441" width="13" height="4" rx="2" fill="#E9ECFC"/>
<rect x="164.5" y="448" width="109" height="1" rx="0.5" fill="#E9ECFC"/>
<rect x="164.5" y="455" width="48" height="4" rx="2" fill="#E9ECFC"/>
<rect x="243.5" y="455" width="30" height="4" rx="2" fill="#E9ECFC"/>
<rect x="164.5" y="462" width="109" height="1" rx="0.5" fill="#E9ECFC"/>
<rect x="164.5" y="472" width="38" height="9" rx="4.5" fill="#E9ECFC"/>
<g clip-path="url(#clip10_131_15218)">
<rect x="330.5" y="396" width="85" height="85" rx="5" fill="#E9ECFC"/>
<path d="M401.5 405V484.004C393.552 489.962 383.692 493.5 372.999 493.5C362.308 493.5 352.446 489.963 344.5 484.004V405H401.5Z" fill="#DADEF9"/>
<path d="M365.074 419.948C365.074 421.775 364.418 423.46 363.334 424.758C361.949 426.416 359.876 427.467 357.555 427.467C355.233 427.467 353.154 426.416 351.775 424.758C350.691 423.46 350.035 421.775 350.035 419.948C350.035 415.794 353.4 412.429 357.555 412.429C361.703 412.43 365.074 415.795 365.074 419.948Z" fill="url(#paint5_linear_131_15218)"/>
<path d="M357.552 414.344C355.394 414.344 355.131 416.118 355.131 417.235C355.131 418.351 355.603 420.378 357.552 420.378C359.5 420.378 359.972 418.351 359.972 417.235C359.972 416.118 359.709 414.344 357.552 414.344Z" fill="white"/>
<path d="M363.334 423.581V424.758C361.949 426.416 359.876 427.467 357.554 427.467C355.233 427.467 353.153 426.416 351.774 424.758V423.581C351.774 421.936 353.28 421.319 355.781 420.377C355.781 420.377 356.344 421.106 357.554 421.106C358.765 421.106 359.327 420.377 359.327 420.377C361.829 421.319 363.334 421.936 363.334 423.581Z" fill="white"/>
<path d="M387.5 414H371.5V416H387.5V414Z" fill="#E9ECFC"/>
<path d="M387.5 419H371.5V421H387.5V419Z" fill="#E9ECFC"/>
<path d="M387.5 424H371.5V426H387.5V424Z" fill="#E9ECFC"/>
<path d="M394.5 430H350.5V432H394.5V430Z" fill="#E9ECFC"/>
<path d="M394.5 436H350.5V438H394.5V436Z" fill="#E9ECFC"/>
<path d="M394.5 442H350.5V444H394.5V442Z" fill="#E9ECFC"/>
<path d="M394.5 448H350.5V450H394.5V448Z" fill="#E9ECFC"/>
<path d="M394.5 454H350.5V456H394.5V454Z" fill="#E9ECFC"/>
<path d="M394.5 460H350.5V462H394.5V460Z" fill="#E9ECFC"/>
<path d="M394.5 466H350.5V468H394.5V466Z" fill="#E9ECFC"/>
<path d="M381.889 476.629C382.208 476.422 382.507 476.244 382.742 475.945C383.193 475.37 383.707 474.908 383.814 474.158C383.857 473.858 383.846 473.577 383.722 473.297C383.702 473.251 383.593 472.824 383.551 472.822C383.453 472.816 383.397 473.162 383.383 473.206C383.193 473.772 382.961 474.319 382.796 474.894C382.537 475.797 382.155 476.919 382.291 477.869C382.343 478.232 382.739 477.734 382.812 477.651C383.286 477.116 383.662 476.531 384.211 476.056C384.935 475.43 386.063 474.695 387.087 474.715C387.371 474.721 387.327 474.951 387.233 475.146C387.037 475.555 386.637 475.886 386.226 476.087C385.623 476.382 384.945 476.447 384.284 476.536C383.675 476.618 383.064 476.707 382.448 476.72C382.055 476.728 381.633 476.758 381.243 476.697C380.988 476.657 381.034 476.614 381.226 476.5C382.761 475.588 384.401 475.038 386.128 474.529C386.442 474.436 386.755 474.368 387.07 474.285C387.124 474.271 386.963 474.254 386.907 474.254C385.91 474.254 384.886 474.396 383.931 474.669C383.013 474.931 382.152 475.358 381.259 475.685C380.534 475.951 379.755 476.305 378.975 476.386C378.926 476.391 378.492 476.378 378.5 476.373C378.646 476.273 378.866 476.216 379.027 476.116C381.296 474.704 383.832 473.711 386.345 472.778C388.141 472.111 389.936 471.442 391.768 470.871C392.679 470.588 393.583 470.25 394.5 470" stroke="#E9ECFC" stroke-width="0.5" stroke-linecap="round"/>
</g>
<rect x="427.5" y="396" width="69" height="11" rx="5.5" fill="#E9ECFC"/>
<rect x="427.5" y="413" width="30" height="4" rx="2" fill="#E9ECFC"/>
<rect x="506.5" y="413" width="30" height="4" rx="2" fill="#E9ECFC"/>
<rect x="427.5" y="420" width="109" height="1" rx="0.5" fill="#E9ECFC"/>
<rect x="427.5" y="427" width="38" height="4" rx="2" fill="#E9ECFC"/>
<rect x="513.5" y="427" width="23" height="4" rx="2" fill="#E9ECFC"/>
<rect x="427.5" y="434" width="109" height="1" rx="0.5" fill="#E9ECFC"/>
<rect x="427.5" y="441" width="30" height="4" rx="2" fill="#E9ECFC"/>
<rect x="523.5" y="441" width="13" height="4" rx="2" fill="#E9ECFC"/>
<rect x="427.5" y="448" width="109" height="1" rx="0.5" fill="#E9ECFC"/>
<rect x="427.5" y="455" width="48" height="4" rx="2" fill="#E9ECFC"/>
<rect x="506.5" y="455" width="30" height="4" rx="2" fill="#E9ECFC"/>
<rect x="427.5" y="462" width="109" height="1" rx="0.5" fill="#E9ECFC"/>
<rect x="427.5" y="472" width="38" height="9" rx="4.5" fill="#E9ECFC"/>
<g clip-path="url(#clip11_131_15218)">
<rect x="67.5" y="499" width="85" height="85" rx="5" fill="#E9ECFC"/>
<path d="M138.5 508V587.004C130.552 592.962 120.692 596.5 109.999 596.5C99.3075 596.5 89.4464 592.963 81.5 587.004V508H138.5Z" fill="#DADEF9"/>
<path d="M102.074 522.948C102.074 524.775 101.418 526.46 100.334 527.758C98.9495 529.416 96.876 530.467 94.5545 530.467C92.233 530.467 90.1536 529.416 88.7748 527.758C87.6907 526.46 87.0352 524.775 87.0352 522.948C87.0352 518.794 90.4002 515.429 94.5545 515.429C98.7029 515.43 102.074 518.795 102.074 522.948Z" fill="url(#paint6_linear_131_15218)"/>
<path d="M94.5516 517.344C92.394 517.344 92.1309 519.118 92.1309 520.235C92.1309 521.351 92.603 523.378 94.5516 523.378C96.5002 523.378 96.9724 521.351 96.9724 520.235C96.9724 519.118 96.7092 517.344 94.5516 517.344Z" fill="white"/>
<path d="M100.334 526.581V527.758C98.9491 529.416 96.8757 530.467 94.5542 530.467C92.2326 530.467 90.1532 529.416 88.7744 527.758V526.581C88.7744 524.936 90.2795 524.319 92.7814 523.377C92.7814 523.377 93.3438 524.106 94.5542 524.106C95.7645 524.106 96.3269 523.377 96.3269 523.377C98.8288 524.319 100.334 524.936 100.334 526.581Z" fill="white"/>
<path d="M124.5 517H108.5V519H124.5V517Z" fill="#E9ECFC"/>
<path d="M124.5 522H108.5V524H124.5V522Z" fill="#E9ECFC"/>
<path d="M124.5 527H108.5V529H124.5V527Z" fill="#E9ECFC"/>
<path d="M131.5 533H87.5V535H131.5V533Z" fill="#E9ECFC"/>
<path d="M131.5 539H87.5V541H131.5V539Z" fill="#E9ECFC"/>
<path d="M131.5 545H87.5V547H131.5V545Z" fill="#E9ECFC"/>
<path d="M131.5 551H87.5V553H131.5V551Z" fill="#E9ECFC"/>
<path d="M131.5 557H87.5V559H131.5V557Z" fill="#E9ECFC"/>
<path d="M131.5 563H87.5V565H131.5V563Z" fill="#E9ECFC"/>
<path d="M131.5 569H87.5V571H131.5V569Z" fill="#E9ECFC"/>
<path d="M118.889 579.629C119.208 579.422 119.507 579.244 119.742 578.945C120.193 578.37 120.707 577.908 120.814 577.158C120.857 576.858 120.846 576.577 120.722 576.297C120.702 576.251 120.593 575.824 120.551 575.822C120.453 575.816 120.397 576.162 120.383 576.206C120.193 576.772 119.961 577.319 119.796 577.894C119.537 578.797 119.155 579.919 119.291 580.869C119.343 581.232 119.739 580.734 119.812 580.651C120.286 580.116 120.662 579.531 121.211 579.056C121.935 578.43 123.063 577.695 124.087 577.715C124.371 577.721 124.327 577.951 124.233 578.146C124.037 578.555 123.637 578.886 123.226 579.087C122.623 579.382 121.945 579.447 121.284 579.536C120.675 579.618 120.064 579.707 119.448 579.72C119.055 579.728 118.633 579.758 118.243 579.697C117.988 579.657 118.034 579.614 118.226 579.5C119.761 578.588 121.401 578.038 123.128 577.529C123.442 577.436 123.755 577.368 124.07 577.285C124.124 577.271 123.963 577.254 123.907 577.254C122.91 577.254 121.886 577.396 120.931 577.669C120.013 577.931 119.152 578.358 118.259 578.685C117.534 578.951 116.755 579.305 115.975 579.386C115.926 579.391 115.492 579.378 115.5 579.373C115.646 579.273 115.866 579.216 116.027 579.116C118.296 577.704 120.832 576.711 123.345 575.778C125.141 575.111 126.936 574.442 128.768 573.871C129.679 573.588 130.583 573.25 131.5 573" stroke="#E9ECFC" stroke-width="0.5" stroke-linecap="round"/>
</g>
<rect x="164.5" y="499" width="69" height="11" rx="5.5" fill="#E9ECFC"/>
<rect x="164.5" y="516" width="30" height="4" rx="2" fill="#E9ECFC"/>
<rect x="243.5" y="516" width="30" height="4" rx="2" fill="#E9ECFC"/>
<rect x="164.5" y="523" width="109" height="1" rx="0.5" fill="#E9ECFC"/>
<rect x="164.5" y="530" width="38" height="4" rx="2" fill="#E9ECFC"/>
<rect x="250.5" y="530" width="23" height="4" rx="2" fill="#E9ECFC"/>
<rect x="164.5" y="537" width="109" height="1" rx="0.5" fill="#E9ECFC"/>
<rect x="164.5" y="544" width="30" height="4" rx="2" fill="#E9ECFC"/>
<rect x="260.5" y="544" width="13" height="4" rx="2" fill="#E9ECFC"/>
<rect x="164.5" y="551" width="109" height="1" rx="0.5" fill="#E9ECFC"/>
<rect x="164.5" y="558" width="48" height="4" rx="2" fill="#E9ECFC"/>
<rect x="243.5" y="558" width="30" height="4" rx="2" fill="#E9ECFC"/>
<rect x="164.5" y="565" width="109" height="1" rx="0.5" fill="#E9ECFC"/>
<rect x="164.5" y="575" width="38" height="9" rx="4.5" fill="#E9ECFC"/>
<g clip-path="url(#clip12_131_15218)">
<rect x="330.5" y="499" width="85" height="85" rx="5" fill="#E9ECFC"/>
<path d="M401.5 508V587.004C393.552 592.962 383.692 596.5 372.999 596.5C362.308 596.5 352.446 592.963 344.5 587.004V508H401.5Z" fill="#DADEF9"/>
<path d="M365.074 522.948C365.074 524.775 364.418 526.46 363.334 527.758C361.949 529.416 359.876 530.467 357.555 530.467C355.233 530.467 353.154 529.416 351.775 527.758C350.691 526.46 350.035 524.775 350.035 522.948C350.035 518.794 353.4 515.429 357.555 515.429C361.703 515.43 365.074 518.795 365.074 522.948Z" fill="url(#paint7_linear_131_15218)"/>
<path d="M357.552 517.344C355.394 517.344 355.131 519.118 355.131 520.235C355.131 521.351 355.603 523.378 357.552 523.378C359.5 523.378 359.972 521.351 359.972 520.235C359.972 519.118 359.709 517.344 357.552 517.344Z" fill="white"/>
<path d="M363.334 526.581V527.758C361.949 529.416 359.876 530.467 357.554 530.467C355.233 530.467 353.153 529.416 351.774 527.758V526.581C351.774 524.936 353.28 524.319 355.781 523.377C355.781 523.377 356.344 524.106 357.554 524.106C358.765 524.106 359.327 523.377 359.327 523.377C361.829 524.319 363.334 524.936 363.334 526.581Z" fill="white"/>
<path d="M387.5 517H371.5V519H387.5V517Z" fill="#E9ECFC"/>
<path d="M387.5 522H371.5V524H387.5V522Z" fill="#E9ECFC"/>
<path d="M387.5 527H371.5V529H387.5V527Z" fill="#E9ECFC"/>
<path d="M394.5 533H350.5V535H394.5V533Z" fill="#E9ECFC"/>
<path d="M394.5 539H350.5V541H394.5V539Z" fill="#E9ECFC"/>
<path d="M394.5 545H350.5V547H394.5V545Z" fill="#E9ECFC"/>
<path d="M394.5 551H350.5V553H394.5V551Z" fill="#E9ECFC"/>
<path d="M394.5 557H350.5V559H394.5V557Z" fill="#E9ECFC"/>
<path d="M394.5 563H350.5V565H394.5V563Z" fill="#E9ECFC"/>
<path d="M394.5 569H350.5V571H394.5V569Z" fill="#E9ECFC"/>
<path d="M381.889 579.629C382.208 579.422 382.507 579.244 382.742 578.945C383.193 578.37 383.707 577.908 383.814 577.158C383.857 576.858 383.846 576.577 383.722 576.297C383.702 576.251 383.593 575.824 383.551 575.822C383.453 575.816 383.397 576.162 383.383 576.206C383.193 576.772 382.961 577.319 382.796 577.894C382.537 578.797 382.155 579.919 382.291 580.869C382.343 581.232 382.739 580.734 382.812 580.651C383.286 580.116 383.662 579.531 384.211 579.056C384.935 578.43 386.063 577.695 387.087 577.715C387.371 577.721 387.327 577.951 387.233 578.146C387.037 578.555 386.637 578.886 386.226 579.087C385.623 579.382 384.945 579.447 384.284 579.536C383.675 579.618 383.064 579.707 382.448 579.72C382.055 579.728 381.633 579.758 381.243 579.697C380.988 579.657 381.034 579.614 381.226 579.5C382.761 578.588 384.401 578.038 386.128 577.529C386.442 577.436 386.755 577.368 387.07 577.285C387.124 577.271 386.963 577.254 386.907 577.254C385.91 577.254 384.886 577.396 383.931 577.669C383.013 577.931 382.152 578.358 381.259 578.685C380.534 578.951 379.755 579.305 378.975 579.386C378.926 579.391 378.492 579.378 378.5 579.373C378.646 579.273 378.866 579.216 379.027 579.116C381.296 577.704 383.832 576.711 386.345 575.778C388.141 575.111 389.936 574.442 391.768 573.871C392.679 573.588 393.583 573.25 394.5 573" stroke="#E9ECFC" stroke-width="0.5" stroke-linecap="round"/>
</g>
<rect x="427.5" y="499" width="69" height="11" rx="5.5" fill="#E9ECFC"/>
<rect x="427.5" y="516" width="30" height="4" rx="2" fill="#E9ECFC"/>
<rect x="506.5" y="516" width="30" height="4" rx="2" fill="#E9ECFC"/>
<rect x="427.5" y="523" width="109" height="1" rx="0.5" fill="#E9ECFC"/>
<rect x="427.5" y="530" width="38" height="4" rx="2" fill="#E9ECFC"/>
<rect x="513.5" y="530" width="23" height="4" rx="2" fill="#E9ECFC"/>
<rect x="427.5" y="537" width="109" height="1" rx="0.5" fill="#E9ECFC"/>
<rect x="427.5" y="544" width="30" height="4" rx="2" fill="#E9ECFC"/>
<rect x="523.5" y="544" width="13" height="4" rx="2" fill="#E9ECFC"/>
<rect x="427.5" y="551" width="109" height="1" rx="0.5" fill="#E9ECFC"/>
<rect x="427.5" y="558" width="48" height="4" rx="2" fill="#E9ECFC"/>
<rect x="506.5" y="558" width="30" height="4" rx="2" fill="#E9ECFC"/>
<rect x="427.5" y="565" width="109" height="1" rx="0.5" fill="#E9ECFC"/>
<rect x="427.5" y="575" width="38" height="9" rx="4.5" fill="#E9ECFC"/>
<g clip-path="url(#clip13_131_15218)">
<rect x="67.5" y="602" width="85" height="85" rx="5" fill="#E9ECFC"/>
<path d="M138.5 611V690.004C130.552 695.962 120.692 699.5 109.999 699.5C99.3075 699.5 89.4464 695.963 81.5 690.004V611H138.5Z" fill="#DADEF9"/>
<path d="M102.074 625.948C102.074 627.775 101.418 629.46 100.334 630.758C98.9495 632.416 96.876 633.467 94.5545 633.467C92.233 633.467 90.1536 632.416 88.7748 630.758C87.6907 629.46 87.0352 627.775 87.0352 625.948C87.0352 621.794 90.4002 618.429 94.5545 618.429C98.7029 618.43 102.074 621.795 102.074 625.948Z" fill="url(#paint8_linear_131_15218)"/>
<path d="M94.5516 620.344C92.394 620.344 92.1309 622.118 92.1309 623.235C92.1309 624.351 92.603 626.378 94.5516 626.378C96.5002 626.378 96.9724 624.351 96.9724 623.235C96.9724 622.118 96.7092 620.344 94.5516 620.344Z" fill="white"/>
<path d="M100.334 629.581V630.758C98.9491 632.416 96.8757 633.467 94.5542 633.467C92.2326 633.467 90.1532 632.416 88.7744 630.758V629.581C88.7744 627.936 90.2795 627.319 92.7814 626.377C92.7814 626.377 93.3438 627.106 94.5542 627.106C95.7645 627.106 96.3269 626.377 96.3269 626.377C98.8288 627.319 100.334 627.936 100.334 629.581Z" fill="white"/>
<path d="M124.5 620H108.5V622H124.5V620Z" fill="#E9ECFC"/>
<path d="M124.5 625H108.5V627H124.5V625Z" fill="#E9ECFC"/>
<path d="M124.5 630H108.5V632H124.5V630Z" fill="#E9ECFC"/>
<path d="M131.5 636H87.5V638H131.5V636Z" fill="#E9ECFC"/>
<path d="M131.5 642H87.5V644H131.5V642Z" fill="#E9ECFC"/>
<path d="M131.5 648H87.5V650H131.5V648Z" fill="#E9ECFC"/>
<path d="M131.5 654H87.5V656H131.5V654Z" fill="#E9ECFC"/>
<path d="M131.5 660H87.5V662H131.5V660Z" fill="#E9ECFC"/>
<path d="M131.5 666H87.5V668H131.5V666Z" fill="#E9ECFC"/>
</g>
<rect x="164.5" y="602" width="69" height="11" rx="5.5" fill="#E9ECFC"/>
<rect x="164.5" y="619" width="30" height="4" rx="2" fill="#E9ECFC"/>
<rect x="243.5" y="619" width="30" height="4" rx="2" fill="#E9ECFC"/>
<rect x="164.5" y="626" width="109" height="1" rx="0.5" fill="#E9ECFC"/>
<rect x="164.5" y="633" width="38" height="4" rx="2" fill="#E9ECFC"/>
<rect x="250.5" y="633" width="23" height="4" rx="2" fill="#E9ECFC"/>
<rect x="164.5" y="640" width="109" height="1" rx="0.5" fill="#E9ECFC"/>
<rect x="164.5" y="647" width="30" height="4" rx="2" fill="#E9ECFC"/>
<rect x="260.5" y="647" width="13" height="4" rx="2" fill="#E9ECFC"/>
<rect x="164.5" y="654" width="109" height="1" rx="0.5" fill="#E9ECFC"/>
<rect x="164.5" y="661" width="48" height="4" rx="2" fill="#E9ECFC"/>
<rect x="243.5" y="661" width="30" height="4" rx="2" fill="#E9ECFC"/>
<rect x="164.5" y="668" width="109" height="1" rx="0.5" fill="#E9ECFC"/>
<g clip-path="url(#clip14_131_15218)">
<rect x="330.5" y="602" width="85" height="85" rx="5" fill="#E9ECFC"/>
<path d="M401.5 611V690.004C393.552 695.962 383.692 699.5 372.999 699.5C362.308 699.5 352.446 695.963 344.5 690.004V611H401.5Z" fill="#DADEF9"/>
<path d="M365.074 625.948C365.074 627.775 364.418 629.46 363.334 630.758C361.949 632.416 359.876 633.467 357.555 633.467C355.233 633.467 353.154 632.416 351.775 630.758C350.691 629.46 350.035 627.775 350.035 625.948C350.035 621.794 353.4 618.429 357.555 618.429C361.703 618.43 365.074 621.795 365.074 625.948Z" fill="url(#paint9_linear_131_15218)"/>
<path d="M357.552 620.344C355.394 620.344 355.131 622.118 355.131 623.235C355.131 624.351 355.603 626.378 357.552 626.378C359.5 626.378 359.972 624.351 359.972 623.235C359.972 622.118 359.709 620.344 357.552 620.344Z" fill="white"/>
<path d="M363.334 629.581V630.758C361.949 632.416 359.876 633.467 357.554 633.467C355.233 633.467 353.153 632.416 351.774 630.758V629.581C351.774 627.936 353.28 627.319 355.781 626.377C355.781 626.377 356.344 627.106 357.554 627.106C358.765 627.106 359.327 626.377 359.327 626.377C361.829 627.319 363.334 627.936 363.334 629.581Z" fill="white"/>
<path d="M387.5 620H371.5V622H387.5V620Z" fill="#E9ECFC"/>
<path d="M387.5 625H371.5V627H387.5V625Z" fill="#E9ECFC"/>
<path d="M387.5 630H371.5V632H387.5V630Z" fill="#E9ECFC"/>
<path d="M394.5 636H350.5V638H394.5V636Z" fill="#E9ECFC"/>
<path d="M394.5 642H350.5V644H394.5V642Z" fill="#E9ECFC"/>
<path d="M394.5 648H350.5V650H394.5V648Z" fill="#E9ECFC"/>
<path d="M394.5 654H350.5V656H394.5V654Z" fill="#E9ECFC"/>
<path d="M394.5 660H350.5V662H394.5V660Z" fill="#E9ECFC"/>
<path d="M394.5 666H350.5V668H394.5V666Z" fill="#E9ECFC"/>
</g>
<rect x="427.5" y="602" width="69" height="11" rx="5.5" fill="#E9ECFC"/>
<rect x="427.5" y="619" width="30" height="4" rx="2" fill="#E9ECFC"/>
<rect x="506.5" y="619" width="30" height="4" rx="2" fill="#E9ECFC"/>
<rect x="427.5" y="626" width="109" height="1" rx="0.5" fill="#E9ECFC"/>
<rect x="427.5" y="633" width="38" height="4" rx="2" fill="#E9ECFC"/>
<rect x="513.5" y="633" width="23" height="4" rx="2" fill="#E9ECFC"/>
<rect x="427.5" y="640" width="109" height="1" rx="0.5" fill="#E9ECFC"/>
<rect x="427.5" y="647" width="30" height="4" rx="2" fill="#E9ECFC"/>
<rect x="523.5" y="647" width="13" height="4" rx="2" fill="#E9ECFC"/>
<rect x="427.5" y="654" width="109" height="1" rx="0.5" fill="#E9ECFC"/>
<rect x="427.5" y="661" width="48" height="4" rx="2" fill="#E9ECFC"/>
<rect x="506.5" y="661" width="30" height="4" rx="2" fill="#E9ECFC"/>
<rect x="427.5" y="668" width="109" height="1" rx="0.5" fill="#E9ECFC"/>
</g>
<rect x="35.5" y="10" width="529" height="655" rx="10" stroke="#424242" stroke-width="20"/>
<defs>
<filter id="filter0_d_131_15218" x="0.5" y="-21" width="599" height="725" filterUnits="userSpaceOnUse" color-interpolation-filters="sRGB">
<feFlood flood-opacity="0" result="BackgroundImageFix"/>
<feColorMatrix in="SourceAlpha" type="matrix" values="0 0 0 0 0 0 0 0 0 0 0 0 0 0 0 0 0 0 127 0" result="hardAlpha"/>
<feOffset dy="4"/>
<feGaussianBlur stdDeviation="12.5"/>
<feComposite in2="hardAlpha" operator="out"/>
<feColorMatrix type="matrix" values="0 0 0 0 0 0 0 0 0 0 0 0 0 0 0 0 0 0 0.08 0"/>
<feBlend mode="normal" in2="BackgroundImageFix" result="effect1_dropShadow_131_15218"/>
<feBlend mode="normal" in="SourceGraphic" in2="effect1_dropShadow_131_15218" result="shape"/>
</filter>
<linearGradient id="paint0_linear_131_15218" x1="94.555" y1="217.568" x2="94.555" y2="207.949" gradientUnits="userSpaceOnUse">
<stop stop-color="#E9ECFC"/>
<stop offset="1" stop-color="#E9ECFC"/>
</linearGradient>
<linearGradient id="paint1_linear_131_15218" x1="357.555" y1="217.568" x2="357.555" y2="207.949" gradientUnits="userSpaceOnUse">
<stop stop-color="#E9ECFC"/>
<stop offset="1" stop-color="#E9ECFC"/>
</linearGradient>
<linearGradient id="paint2_linear_131_15218" x1="94.555" y1="320.568" x2="94.555" y2="310.949" gradientUnits="userSpaceOnUse">
<stop stop-color="#E9ECFC"/>
<stop offset="1" stop-color="#E9ECFC"/>
</linearGradient>
<linearGradient id="paint3_linear_131_15218" x1="357.555" y1="320.568" x2="357.555" y2="310.949" gradientUnits="userSpaceOnUse">
<stop stop-color="#E9ECFC"/>
<stop offset="1" stop-color="#E9ECFC"/>
</linearGradient>
<linearGradient id="paint4_linear_131_15218" x1="94.555" y1="423.568" x2="94.555" y2="413.949" gradientUnits="userSpaceOnUse">
<stop stop-color="#E9ECFC"/>
<stop offset="1" stop-color="#E9ECFC"/>
</linearGradient>
<linearGradient id="paint5_linear_131_15218" x1="357.555" y1="423.568" x2="357.555" y2="413.949" gradientUnits="userSpaceOnUse">
<stop stop-color="#E9ECFC"/>
<stop offset="1" stop-color="#E9ECFC"/>
</linearGradient>
<linearGradient id="paint6_linear_131_15218" x1="94.555" y1="526.568" x2="94.555" y2="516.949" gradientUnits="userSpaceOnUse">
<stop stop-color="#E9ECFC"/>
<stop offset="1" stop-color="#E9ECFC"/>
</linearGradient>
<linearGradient id="paint7_linear_131_15218" x1="357.555" y1="526.568" x2="357.555" y2="516.949" gradientUnits="userSpaceOnUse">
<stop stop-color="#E9ECFC"/>
<stop offset="1" stop-color="#E9ECFC"/>
</linearGradient>
<linearGradient id="paint8_linear_131_15218" x1="94.555" y1="629.568" x2="94.555" y2="619.949" gradientUnits="userSpaceOnUse">
<stop stop-color="#E9ECFC"/>
<stop offset="1" stop-color="#E9ECFC"/>
</linearGradient>
<linearGradient id="paint9_linear_131_15218" x1="357.555" y1="629.568" x2="357.555" y2="619.949" gradientUnits="userSpaceOnUse">
<stop stop-color="#E9ECFC"/>
<stop offset="1" stop-color="#E9ECFC"/>
</linearGradient>
<clipPath id="clip0_131_15218">
<rect x="516.5" y="32" width="21" height="21" rx="10.5" fill="white"/>
</clipPath>
<clipPath id="clip1_131_15218">
<rect x="507.5" y="32" width="21" height="21" rx="10.5" fill="white"/>
</clipPath>
<clipPath id="clip2_131_15218">
<rect x="498.5" y="32" width="21" height="21" rx="10.5" fill="white"/>
</clipPath>
<clipPath id="clip3_131_15218">
<rect width="73" height="21" fill="white" transform="translate(65.5 34)"/>
</clipPath>
<clipPath id="clip4_131_15218">
<rect width="469" height="479" fill="white" transform="translate(67.5 190)"/>
</clipPath>
<clipPath id="clip5_131_15218">
<rect width="85" height="85" fill="white" transform="translate(67.5 190)"/>
</clipPath>
<clipPath id="clip6_131_15218">
<rect width="85" height="85" fill="white" transform="translate(330.5 190)"/>
</clipPath>
<clipPath id="clip7_131_15218">
<rect width="85" height="85" fill="white" transform="translate(67.5 293)"/>
</clipPath>
<clipPath id="clip8_131_15218">
<rect width="85" height="85" fill="white" transform="translate(330.5 293)"/>
</clipPath>
<clipPath id="clip9_131_15218">
<rect width="85" height="85" fill="white" transform="translate(67.5 396)"/>
</clipPath>
<clipPath id="clip10_131_15218">
<rect width="85" height="85" fill="white" transform="translate(330.5 396)"/>
</clipPath>
<clipPath id="clip11_131_15218">
<rect width="85" height="85" fill="white" transform="translate(67.5 499)"/>
</clipPath>
<clipPath id="clip12_131_15218">
<rect width="85" height="85" fill="white" transform="translate(330.5 499)"/>
</clipPath>
<clipPath id="clip13_131_15218">
<rect width="85" height="85" fill="white" transform="translate(67.5 602)"/>
</clipPath>
<clipPath id="clip14_131_15218">
<rect width="85" height="85" fill="white" transform="translate(330.5 602)"/>
</clipPath>
</defs>
</svg>
