<svg width="50" height="50" viewBox="0 0 50 50" fill="none" xmlns="http://www.w3.org/2000/svg">
<g id="telegram">
<g id="Group">
<path id="Vector" d="M34.5703 14.785C34.2188 14.912 30.8398 16.2304 27.0508 17.7245C23.2617 19.2089 18.7598 20.9764 17.041 21.6503C15.3223 22.3241 13.7695 22.9784 13.5938 23.1151C12.793 23.7206 12.793 24.7264 13.5938 25.3221C13.7695 25.4491 15.166 25.9862 16.6895 26.5038L19.4531 27.4413L21.7188 26.0155C25.6543 23.5155 29.7266 20.9374 29.8828 20.8495C30.0879 20.7421 30.3613 20.4882 25.8301 24.5604C23.5742 26.5917 21.7285 28.2811 21.7285 28.33C21.7285 28.369 22.627 29.121 23.7305 29.9901C28.4277 33.7304 30.3125 35.1268 30.9473 35.3417C31.4648 35.5077 32.1094 35.4784 32.5098 35.244C33.3008 34.7948 33.1934 35.1952 35.1953 25.1464C36.1914 20.0975 37.0117 15.8007 37.0117 15.5858C37.0117 15.2929 36.9434 15.1464 36.6797 14.8827C36.377 14.58 36.2988 14.5507 35.7812 14.5507C35.4297 14.5507 34.9609 14.6483 34.5703 14.785ZM35.8398 15.8007C35.8398 15.8983 35.0488 19.9706 34.082 24.8436C33.1152 29.7264 32.3242 33.7499 32.3242 33.7987C32.3242 34.0038 31.9141 34.2772 31.6113 34.2772C31.3477 34.2772 30.6738 33.7987 27.3926 31.2889C25.2441 29.6483 23.4766 28.2909 23.4668 28.2811C23.4473 28.2714 25.5371 26.3671 28.0957 24.0624C33.5742 19.1405 33.5547 19.16 33.6426 18.7596C33.7793 18.1444 33.2324 17.705 32.5684 17.8807C32.3828 17.9393 29.3164 19.8241 25.7715 22.0702L19.3262 26.162L16.9141 25.3514C13.9355 24.3358 14.1406 24.4335 14.1797 24.1893C14.209 24.0233 15.9277 23.3202 24.7461 19.8632C30.5371 17.5878 35.3516 15.7128 35.4395 15.6932C35.752 15.6054 35.8398 15.6249 35.8398 15.8007Z" fill="white"/>
</g>
</g>
</svg>
