<svg width="50" height="50" viewBox="0 0 50 50" fill="none" xmlns="http://www.w3.org/2000/svg">
<g id="vk">
<g id="Group">
<path id="Vector" d="M22.9199 15.4297C21.5332 15.586 20.6055 15.9082 19.8633 16.4746C19.4531 16.7871 19.0918 17.4707 19.1699 17.7832C19.2383 18.0371 19.5898 18.2617 19.9219 18.2617C20.8301 18.2617 21.1621 19.3555 21.0645 22.0313C21.0059 23.6621 20.8691 24.3164 20.5664 24.3164C20.3809 24.3164 19.834 23.7793 19.4238 23.1836C19.2578 22.9297 18.6816 21.8164 18.1543 20.6934C16.7383 17.6758 16.1426 16.7188 15.5566 16.4942C15.2441 16.377 11.5918 16.3867 10.6641 16.5039C9.44336 16.6602 8.98438 17.0215 8.98438 17.8223C8.98438 19.0235 10.9277 22.793 13.7207 27.002C15.7031 30 16.9922 31.4063 18.9355 32.7149C20.9961 34.1016 23.7793 34.7657 26.3379 34.4922C26.8945 34.4239 27.4414 34.336 27.5391 34.2774C27.9102 34.0821 28.0371 33.7207 28.1738 32.4903C28.3105 31.2403 28.457 30.7129 28.7402 30.4785C28.8867 30.3614 29.1113 30.5469 30.7422 32.1485C32.5098 33.8965 32.9004 34.1992 33.5352 34.3848C34.1797 34.5703 36.0352 34.6582 37.8027 34.5801C39.4043 34.5117 39.6777 34.4825 40.0781 34.2774C40.6934 33.9844 40.918 33.6133 40.918 32.8907C40.918 31.6602 40.3418 30.791 37.9395 28.3789C36.9727 27.4024 36.2109 26.5625 36.1719 26.4258C36.0449 25.9082 36.2402 25.5762 37.8125 23.584C39.0918 21.9629 40.0293 20.5567 40.5566 19.4629C40.9082 18.7207 40.9668 18.5157 40.9668 17.9492C40.9668 17.3926 40.9277 17.2657 40.7227 17.041C40.2637 16.5528 39.6777 16.4649 36.8457 16.4746C33.7012 16.4844 33.3496 16.5235 32.9883 16.9141C32.8418 17.0801 32.2559 18.125 31.6992 19.2383C31.1328 20.3614 30.4297 21.67 30.127 22.168C29.4531 23.252 28.584 24.2188 28.418 24.0625C28.1934 23.8379 28.1152 22.6075 28.1738 20.3614C28.2422 18.0567 28.1836 17.4024 27.8711 16.7383C27.666 16.3184 27.3145 16.1035 26.1914 15.7227C25.166 15.3809 24.1602 15.293 22.9199 15.4297ZM25.8301 16.836C26.2109 16.9629 26.5918 17.0996 26.6797 17.1387C26.9922 17.2657 27.0801 18.125 27.002 20.4004C26.8945 23.6328 27.1289 24.8242 27.9492 25.2246C29.1016 25.791 30.4883 24.2383 32.6172 20.0098C33.2031 18.8575 33.7402 17.8516 33.8281 17.7832C33.9941 17.6465 38.9746 17.5879 39.541 17.7149C39.8438 17.793 39.8633 17.8125 39.8145 18.125C39.6777 18.9453 38.4277 20.9278 36.6309 23.1934C35.3418 24.8145 34.9609 25.4981 34.9609 26.2207C34.9609 26.9434 35.3027 27.4121 37.0703 29.17C39.1797 31.2696 39.7363 32.0215 39.7461 32.7735C39.7461 33.2813 39.5996 33.3301 37.7148 33.418C35.7812 33.4961 34.0332 33.3789 33.5547 33.1348C33.3887 33.0567 32.4414 32.1875 31.4453 31.211C30.4492 30.2344 29.4922 29.375 29.3262 29.3067C28.6035 29.0137 27.7051 29.5606 27.3535 30.5078C27.2461 30.791 27.0996 31.5235 27.0312 32.1387L26.9043 33.252L26.416 33.3301C26.1523 33.3692 25.3809 33.3887 24.707 33.3496C21.4453 33.2129 18.8184 31.7481 16.3379 28.6817C15.0586 27.0899 12.5098 23.0371 11.2207 20.5371C10.5859 19.3067 10.0586 17.9395 10.1758 17.8223C10.3223 17.6758 11.5527 17.5782 13.252 17.5782H15.1172L15.3711 17.8809C15.6055 18.1543 16.2402 19.4043 17.7051 22.461C18.3008 23.711 19.043 24.7364 19.6289 25.1465C20.1855 25.5274 20.8398 25.5762 21.2793 25.2735C22.0117 24.7852 22.2559 23.8184 22.2559 21.3867C22.2559 19.2774 21.875 17.9297 21.123 17.4707C20.9473 17.3633 20.8203 17.2266 20.8496 17.1778C20.9473 17.0215 22.2168 16.6895 23.0566 16.6016C24.1895 16.4844 25.0293 16.5528 25.8301 16.836Z" fill="white"/>
</g>
</g>
</svg>
