<svg width="50" height="50" viewBox="0 0 50 50" fill="none" xmlns="http://www.w3.org/2000/svg">
<g id="whatsapp">
<g id="Group">
<g id="Group 505">
<path id="Vector" d="M23.4144 10.7648C20.9163 11.0578 18.9117 11.7903 16.9764 13.1164C13.9925 15.1596 11.9185 18.2746 11.186 21.8213C11.0241 22.6 11.001 22.9161 11.001 24.4042C11.001 25.8691 11.0241 26.2238 11.1783 26.9717C11.4327 28.2439 11.8414 29.4081 12.4351 30.5878L12.9671 31.6364L12.6201 33.5331C12.4274 34.574 12.2732 35.5377 12.2732 35.6842C12.2732 36.2394 12.7049 36.7791 13.2678 36.9333C13.5145 36.995 13.9077 36.9487 15.6657 36.6326L17.7706 36.2471L18.5416 36.6326C19.8292 37.2803 21.618 37.8123 23.0443 37.9742C23.6457 38.0436 23.8231 37.9819 23.9541 37.6812C24.0775 37.3882 23.985 37.0644 23.7383 36.9564C23.6457 36.9102 23.1214 36.8022 22.5663 36.7174C21.325 36.5247 20.1453 36.1391 18.9579 35.5377C18.4568 35.291 17.9479 35.0828 17.8399 35.0828C17.7243 35.0906 16.7297 35.2602 15.6271 35.4606C14.5245 35.6611 13.5762 35.8153 13.5299 35.7922C13.3911 35.7459 13.3911 35.6997 13.7767 33.6025C13.9694 32.5539 14.1236 31.5978 14.1236 31.4668C14.1236 31.3357 14.0388 31.089 13.9386 30.9347C13.2832 29.8939 12.6278 28.2439 12.3348 26.8792C12.1884 26.2084 12.1652 25.8691 12.1652 24.4042C12.1652 22.9392 12.1884 22.6077 12.3348 21.9523C13.1907 18.1049 15.5886 15.0054 19.0736 13.2244C22.52 11.4587 26.6836 11.4433 30.1377 13.1704C30.9936 13.6022 32.073 14.3115 32.6898 14.8358C32.9057 15.0208 33.1602 15.2059 33.245 15.229C33.4609 15.2984 33.8078 15.1057 33.8926 14.8744C34.016 14.5274 33.8926 14.3115 33.3066 13.8412C31.1324 12.0987 28.7345 11.0963 26.0359 10.7956C25.3883 10.7263 23.931 10.7108 23.4144 10.7648Z" fill="white"/>
<path id="Vector_2" d="M34.9802 16.1158C34.4867 16.3085 34.5021 16.6863 35.0496 17.5036C35.9054 18.7758 36.5222 20.2716 36.8846 21.9216C37.0311 22.6001 37.0542 22.9393 37.0542 24.4043C37.0542 25.8692 37.0311 26.2085 36.8846 26.8793C36.2755 29.7012 34.8183 32.1685 32.7442 33.911C30.8321 35.5224 28.7966 36.4245 26.1751 36.8177C25.8436 36.8717 25.5352 37.1339 25.5352 37.3652C25.5352 37.581 25.7202 37.8509 25.9207 37.9203C26.3679 38.0822 28.3725 37.6273 29.8066 37.0413C34.055 35.2988 37.1159 31.5748 38.0334 27.018C38.2724 25.8307 38.3187 23.7258 38.1491 22.5153C37.9178 20.9347 37.5246 19.6548 36.8538 18.3132C36.4683 17.5499 35.7358 16.3702 35.543 16.216C35.3811 16.085 35.1498 16.0464 34.9802 16.1158Z" fill="white"/>
<path id="Vector_3" d="M19.0967 16.3777C18.4645 16.5088 17.8322 16.6784 17.7011 16.7555C17.3619 16.9329 17.0689 17.303 16.9764 17.6808C16.9224 17.8581 16.8145 18.1742 16.7297 18.3901C16.3673 19.2845 16.3441 19.3847 16.3827 19.9707C16.4058 20.4487 16.4752 20.6878 16.7682 21.3354C18.8423 25.9693 22.6357 29.8398 27.2541 32.0372C28.7807 32.762 29.4361 32.8314 30.3767 32.3533C30.5926 32.2454 30.9088 32.1374 31.0784 32.1066C31.5333 32.0295 32.0499 31.6748 32.2426 31.3047C32.4354 30.9346 32.8594 28.8992 32.8594 28.3594C32.8594 27.9431 32.6744 27.5036 32.3814 27.2492C32.2889 27.1566 31.6952 26.7865 31.0784 26.4165C30.2071 25.8922 29.8756 25.738 29.5672 25.7071C29.0814 25.6454 28.6265 25.8382 28.0328 26.3471L27.6011 26.7094L27.3621 26.5707C26.0359 25.8536 23.5995 23.4557 22.4892 21.7672L22.2733 21.4357L22.6434 20.9962C23.1908 20.3254 23.3219 20.0247 23.2833 19.5081C23.2525 19.1226 23.1677 18.9298 22.574 17.9198C21.7953 16.6013 21.6796 16.4548 21.2556 16.2621C20.8315 16.0693 20.446 16.0848 19.0967 16.3777ZM20.8469 17.3647C21.0397 17.5266 22.1422 19.4233 22.1422 19.6006C22.1422 19.6931 21.9418 20.0093 21.695 20.31C21.0936 21.0424 20.9857 21.2121 20.9857 21.4048C20.9857 21.5899 21.8415 22.9083 22.4892 23.7102C23.0752 24.4504 24.4399 25.8151 25.1878 26.4242C26.1824 27.226 27.3621 27.9893 27.6165 27.9893C27.8324 27.9893 28.1716 27.758 28.9889 27.0487C29.1277 26.933 29.2973 26.8328 29.3744 26.8328C29.4438 26.8328 29.9989 27.1258 30.6003 27.4882C31.8802 28.2592 31.8031 28.0742 31.5102 29.5777C31.248 30.9038 31.2557 30.8884 30.7777 30.9886C30.5541 31.0349 30.13 31.1814 29.837 31.3125C29.413 31.4975 29.2279 31.536 29.012 31.4975C28.5571 31.4204 26.1747 30.2022 25.2263 29.5622C22.1345 27.4882 19.7598 24.7819 18.1483 21.5205C17.4313 20.0555 17.385 19.778 17.7397 19.0378C17.8631 18.7679 17.9941 18.3978 18.025 18.2205C18.0558 18.0354 18.1175 17.8581 18.1715 17.8119C18.264 17.7347 20.2455 17.2953 20.5693 17.2798C20.6542 17.2721 20.7775 17.3184 20.8469 17.3647Z" fill="white"/>
</g>
</g>
</g>
</svg>
